<svg width="267" height="327" viewBox="0 0 267 327" fill="none" xmlns="http://www.w3.org/2000/svg">
<circle cx="4.98548" cy="4.98548" r="4.98548" fill="#E6E6E6"/>
<circle cx="4.98548" cy="37.1141" r="4.98548" fill="#E6E6E6"/>
<circle cx="133.5" cy="4.98548" r="4.98548" fill="#E6E6E6"/>
<circle cx="133.5" cy="37.1141" r="4.98548" fill="#E6E6E6"/>
<circle cx="262.015" cy="4.98548" r="4.98548" fill="#E6E6E6"/>
<circle cx="262.015" cy="37.1141" r="4.98548" fill="#E6E6E6"/>
<circle cx="69.2428" cy="4.98548" r="4.98548" fill="#E6E6E6"/>
<circle cx="69.2428" cy="37.1141" r="4.98548" fill="#E6E6E6"/>
<circle cx="197.757" cy="4.98548" r="4.98548" fill="#E6E6E6"/>
<circle cx="197.757" cy="37.1141" r="4.98548" fill="#E6E6E6"/>
<circle cx="37.1139" cy="4.98548" r="4.98548" fill="#E6E6E6"/>
<circle cx="37.1139" cy="37.1141" r="4.98548" fill="#E6E6E6"/>
<circle cx="165.629" cy="4.98548" r="4.98548" fill="#E6E6E6"/>
<circle cx="165.629" cy="37.1141" r="4.98548" fill="#E6E6E6"/>
<circle cx="101.371" cy="4.98548" r="4.98548" fill="#E6E6E6"/>
<circle cx="101.371" cy="37.1141" r="4.98548" fill="#E6E6E6"/>
<circle cx="229.886" cy="4.98548" r="4.98548" fill="#E6E6E6"/>
<circle cx="229.886" cy="37.1141" r="4.98548" fill="#E6E6E6"/>
<circle cx="261.96" cy="64.8085" r="4.98548" transform="rotate(90 261.96 64.8085)" fill="#E6E6E6"/>
<circle cx="229.831" cy="64.8085" r="4.98548" transform="rotate(90 229.831 64.8085)" fill="#E6E6E6"/>
<circle cx="261.96" cy="193.323" r="4.98548" transform="rotate(90 261.96 193.323)" fill="#E6E6E6"/>
<circle cx="229.831" cy="193.323" r="4.98548" transform="rotate(90 229.831 193.323)" fill="#E6E6E6"/>
<circle cx="261.96" cy="321.838" r="4.98548" transform="rotate(90 261.96 321.838)" fill="#E6E6E6"/>
<circle cx="229.831" cy="321.838" r="4.98548" transform="rotate(90 229.831 321.838)" fill="#E6E6E6"/>
<circle cx="261.96" cy="129.066" r="4.98548" transform="rotate(90 261.96 129.066)" fill="#E6E6E6"/>
<circle cx="229.831" cy="129.066" r="4.98548" transform="rotate(90 229.831 129.066)" fill="#E6E6E6"/>
<circle cx="261.96" cy="257.58" r="4.98548" transform="rotate(90 261.96 257.58)" fill="#E6E6E6"/>
<circle cx="229.831" cy="257.58" r="4.98548" transform="rotate(90 229.831 257.58)" fill="#E6E6E6"/>
<circle cx="261.96" cy="96.9371" r="4.98548" transform="rotate(90 261.96 96.9371)" fill="#E6E6E6"/>
<circle cx="229.831" cy="96.9371" r="4.98548" transform="rotate(90 229.831 96.9371)" fill="#E6E6E6"/>
<circle cx="261.96" cy="225.452" r="4.98548" transform="rotate(90 261.96 225.452)" fill="#E6E6E6"/>
<circle cx="229.831" cy="225.452" r="4.98548" transform="rotate(90 229.831 225.452)" fill="#E6E6E6"/>
<circle cx="261.96" cy="161.194" r="4.98548" transform="rotate(90 261.96 161.194)" fill="#E6E6E6"/>
<circle cx="229.831" cy="161.194" r="4.98548" transform="rotate(90 229.831 161.194)" fill="#E6E6E6"/>
<circle cx="261.96" cy="289.709" r="4.98548" transform="rotate(90 261.96 289.709)" fill="#E6E6E6"/>
<circle cx="229.831" cy="289.709" r="4.98548" transform="rotate(90 229.831 289.709)" fill="#E6E6E6"/>
</svg>
