<svg width="18" height="12" fill="none" xmlns="http://www.w3.org/2000/svg"><path d="M16.04 2.237h-4.397V1.144h4.397v1.093zM9.32 6.715c.282.44.425.974.425 1.6 0 .648-.16 1.229-.486 1.742a3.012 3.012 0 01-2.004 1.407 7.58 7.58 0 01-1.541.146H.796V.692h5.273c1.328.021 2.27.406 2.827 1.163.334.464.5 1.02.5 1.667 0 .668-.169 1.202-.505 1.607-.188.228-.465.435-.832.622.557.204.978.523 1.26.964zM3.313 4.997h2.31c.475 0 .86-.091 1.154-.271.296-.18.443-.5.443-.96 0-.508-.195-.845-.586-1.007-.337-.113-.767-.171-1.289-.171H3.314v2.409zm4.13 3.161c0-.567-.232-.958-.695-1.17-.258-.118-.623-.18-1.091-.185H3.314v2.91H5.62c.474 0 .84-.062 1.106-.192.477-.237.717-.69.717-1.363zM17.67 6.382c.054.358.079.876.068 1.553h-5.694c.032.786.303 1.336.818 1.65.31.197.686.294 1.127.294.465 0 .843-.118 1.134-.359.16-.128.3-.31.42-.536h2.088c-.056.463-.306.933-.759 1.413-.7.76-1.68 1.142-2.94 1.142a4.272 4.272 0 01-2.755-.963c-.795-.642-1.193-1.686-1.193-3.132 0-1.357.358-2.396 1.077-3.118.72-.724 1.65-1.085 2.797-1.085.68 0 1.292.122 1.84.366.544.245.995.629 1.349 1.158a3.87 3.87 0 01.623 1.617zm-2.055.204c-.037-.543-.22-.954-.546-1.235-.325-.283-.73-.424-1.212-.424-.527 0-.931.15-1.22.448-.29.298-.471.7-.546 1.211h3.524z" fill="#707070"/></svg>