<svg width="745" height="838" fill="none" xmlns="http://www.w3.org/2000/svg"><path d="M6.31 4.402c0 2.361-1.052 3.541-3.155 3.541C1.052 7.943 0 6.763 0 4.403 0 2.631 1.577.86 3.155.86c1.577 0 3.154 1.77 3.154 3.541zm67.296 0c0 1.77-1.577 3.541-3.154 3.541-1.578 0-3.155-1.77-3.155-3.54 0-1.771 1.052-3.542 3.155-3.542 1.577 0 3.154 1.77 3.154 3.541zm67.297 0c0 1.77-1.577 3.541-3.154 3.541-1.578 0-3.155-1.77-3.155-3.54 0-1.771 1.577-3.542 3.155-3.542 1.577 0 3.154 1.77 3.154 3.541zm67.297 0c0 1.77-1.577 3.541-3.154 3.541s-3.155-1.77-3.155-3.54c0-1.771 1.578-3.542 3.155-3.542 1.577 0 3.154 1.77 3.154 3.541zm66.772 0c0 1.77-1.578 3.541-3.155 3.541-1.577 0-3.154-1.77-3.154-3.54 0-1.771 1.577-3.542 3.154-3.542s3.155 1.77 3.155 3.541zm67.297 0c0 1.77-1.577 3.541-3.154 3.541-1.578 0-3.155-1.18-3.155-3.54 0-1.771 1.577-3.542 3.155-3.542 1.577 0 3.154 1.77 3.154 3.541zm67.297 0c0 1.77-1.577 3.541-3.155 3.541-1.577 0-3.68-1.18-3.68-3.54 0-1.771 1.577-3.542 3.154-3.542 1.578 0 3.681 1.77 3.681 3.541zm66.771 0c0 1.77-1.577 3.541-3.154 3.541s-3.155-1.77-3.155-3.54c0-1.771 1.578-3.542 3.155-3.542 2.103 0 3.154 1.77 3.154 3.541zm67.298 0c0 1.77-1.578 3.541-3.155 3.541-1.577 0-3.155-1.77-3.155-3.54 0-1.771 1.578-3.542 3.155-3.542 1.577 0 3.155 1.77 3.155 3.541zm67.297 0c0 1.77-1.578 3.541-3.155 3.541-1.577 0-3.154-1.77-3.154-3.54 0-1.771 1.577-3.542 3.154-3.542s3.155 1.77 3.155 3.541zm67.297 0c0 1.77-1.578 3.541-3.155 3.541-1.577 0-3.155-1.77-3.155-3.54 0-1.771 1.578-3.542 3.155-3.542 1.577 0 3.155 1.77 3.155 3.541zm66.771 0c0 1.77-1.577 3.541-3.154 3.541-1.578 0-3.155-1.77-3.155-3.54 0-1.771 1.577-3.542 3.155-3.542 2.103 0 3.154 1.77 3.154 3.541zM6.31 79.945c0 1.77-1.052 3.54-3.155 3.54-2.103 0-3.155-1.77-3.155-3.54s1.577-3.541 3.155-3.541c1.577 0 3.154 1.18 3.154 3.54zm67.296 0c0 1.77-1.577 3.54-3.154 3.54-1.578 0-3.155-1.77-3.155-3.54s1.577-3.541 3.155-3.541c1.577 0 3.154 1.18 3.154 3.54zm67.297 0c0 1.77-1.577 3.54-3.154 3.54-1.578 0-3.155-1.77-3.155-3.54s1.577-3.541 3.155-3.541c1.577 0 3.154 1.18 3.154 3.54zm67.297 0c0 1.77-1.577 3.54-3.154 3.54s-3.155-1.77-3.155-3.54 1.578-3.541 3.155-3.541c1.577 0 3.154 1.18 3.154 3.54zm66.772 0c0 1.77-1.578 3.54-3.155 3.54-1.577 0-3.154-1.77-3.154-3.54s1.577-3.541 3.154-3.541 3.155 1.18 3.155 3.54zm67.297 0c0 1.77-1.577 3.54-3.154 3.54-1.578 0-3.155-1.77-3.155-3.54s1.577-3.541 3.155-3.541c1.577 0 3.154 1.18 3.154 3.54zm67.297 0c0 1.77-1.577 3.54-3.155 3.54-1.577 0-3.154-1.77-3.154-3.54s1.577-3.541 3.154-3.541c1.578 0 3.155 1.18 3.155 3.54zm66.771 0c0 1.77-1.577 3.54-3.154 3.54s-3.155-1.77-3.155-3.54 1.578-3.541 3.155-3.541c2.103 0 3.154 1.18 3.154 3.54zm67.298 0c0 1.77-1.578 3.54-3.155 3.54-1.577 0-3.155-1.77-3.155-3.54s1.578-3.541 3.155-3.541c1.577 0 3.155 1.18 3.155 3.54zm67.297 0c0 1.77-1.578 3.54-3.155 3.54-1.577 0-3.154-1.77-3.154-3.54s1.577-3.541 3.154-3.541 3.155 1.18 3.155 3.54zm67.297 0c0 1.77-1.578 3.54-3.155 3.54-1.577 0-3.155-1.77-3.155-3.54s1.578-3.541 3.155-3.541c1.577 0 3.155 1.18 3.155 3.54zm66.771 0c0 1.77-1.577 3.54-3.154 3.54-1.578 0-3.155-1.77-3.155-3.54s1.577-3.541 3.155-3.541c2.103 0 3.154 1.18 3.154 3.54zM6.31 155.488c0 1.77-1.578 3.541-3.155 3.541-1.578 0-3.155-1.771-3.155-3.541 0-1.771 1.577-3.541 3.155-3.541 1.577 0 3.154 1.18 3.154 3.541zm67.296-.001c0 1.77-1.577 3.541-3.154 3.541-1.578 0-3.155-1.771-3.155-3.541 0-1.771 1.577-3.542 3.155-3.542 1.577-.59 3.154 1.181 3.154 3.542zm67.297 0c0 1.77-1.577 3.541-3.154 3.541-1.578 0-3.155-1.771-3.155-3.541 0-1.771 1.577-3.542 3.155-3.542 1.577-.59 3.154 1.181 3.154 3.542zm67.297 0c0 1.77-1.577 3.541-3.154 3.541s-3.155-1.771-3.155-3.541c0-1.771 1.578-3.542 3.155-3.542 1.577-.59 3.154 1.181 3.154 3.542zm66.772 0c0 1.77-1.578 3.541-3.155 3.541-1.577 0-3.154-1.771-3.154-3.541 0-1.771 1.577-3.542 3.154-3.542 1.577-.59 3.155 1.181 3.155 3.542zm67.297.001c0 1.77-1.577 3.541-3.154 3.541-1.578 0-3.155-1.771-3.155-3.541 0-1.771 1.577-3.541 3.155-3.541 1.577 0 3.154 1.18 3.154 3.541zm67.297 0c0 1.77-1.577 3.541-3.155 3.541-1.577 0-3.154-1.771-3.154-3.541 0-1.771 1.577-3.541 3.154-3.541 1.578 0 3.155 1.18 3.155 3.541zm66.771-.001c0 1.77-1.577 3.541-3.154 3.541s-3.155-1.771-3.155-3.541c0-1.771 1.578-3.542 3.155-3.542 2.103-.59 3.154 1.181 3.154 3.542zm67.298 0c0 1.77-1.578 3.541-3.155 3.541-1.577 0-3.155-1.771-3.155-3.541 0-1.771 1.578-3.542 3.155-3.542 1.577-.59 3.155 1.181 3.155 3.542zm67.297 0c0 1.77-1.578 3.541-3.155 3.541-1.577 0-3.154-1.771-3.154-3.541 0-1.771 1.577-3.542 3.154-3.542 1.577-.59 3.155 1.181 3.155 3.542zm67.297 0c0 1.77-1.578 3.541-3.155 3.541-1.577 0-3.155-1.771-3.155-3.541 0-1.771 1.578-3.542 3.155-3.542 1.577-.59 3.155 1.181 3.155 3.542zm66.771 0c0 1.77-1.577 3.541-3.154 3.541-1.578 0-3.155-1.771-3.155-3.541 0-1.771 1.577-3.542 3.155-3.542 2.103-.59 3.154 1.181 3.154 3.542zM6.31 230.439c0 1.771-1.578 3.542-3.155 3.542-1.578 0-3.155-1.181-3.155-3.542 0-1.77 1.577-3.541 3.155-3.541 1.577 0 3.154 1.771 3.154 3.541zm67.296 0c0 1.771-1.577 3.542-3.154 3.542-1.578 0-3.155-1.771-3.155-3.542 0-1.77 1.577-3.541 3.155-3.541 1.577 0 3.154 1.771 3.154 3.541zm67.297 0c0 1.771-1.577 3.542-3.154 3.542-1.578 0-3.155-1.771-3.155-3.542 0-1.77 1.577-3.541 3.155-3.541 1.577 0 3.154 1.771 3.154 3.541zm67.297 0c0 1.771-1.577 3.542-3.154 3.542s-3.155-1.771-3.155-3.542c0-1.77 1.578-3.541 3.155-3.541 1.577 0 3.154 1.771 3.154 3.541zm66.772 0c0 1.771-1.578 3.542-3.155 3.542-1.577 0-3.154-1.771-3.154-3.542 0-1.77 1.577-3.541 3.154-3.541s3.155 1.771 3.155 3.541zm67.297 0c0 1.771-1.577 3.542-3.154 3.542-1.578 0-3.155-1.771-3.155-3.542 0-1.77 1.577-3.541 3.155-3.541 1.577 0 3.154 1.771 3.154 3.541zm67.297 0c0 1.771-1.577 3.542-3.155 3.542-1.577 0-3.154-1.771-3.154-3.542 0-1.77 1.577-3.541 3.154-3.541 1.578 0 3.155 1.771 3.155 3.541zm66.771 0c0 1.771-1.577 3.542-3.154 3.542s-3.155-1.771-3.155-3.542c0-1.77 1.578-3.541 3.155-3.541 2.103 0 3.154 1.771 3.154 3.541zm67.298 0c0 1.771-1.578 3.542-3.155 3.542-1.577 0-3.155-1.771-3.155-3.542 0-1.77 1.578-3.541 3.155-3.541 1.577 0 3.155 1.771 3.155 3.541zm67.297 0c0 1.771-1.578 3.542-3.155 3.542-1.577 0-3.154-1.771-3.154-3.542 0-1.77 1.577-3.541 3.154-3.541s3.155 1.771 3.155 3.541zm67.297 0c0 1.771-1.578 3.542-3.155 3.542-1.577 0-3.155-1.771-3.155-3.542 0-1.77 1.578-3.541 3.155-3.541 1.577 0 3.155 1.771 3.155 3.541zm66.771 0c0 1.771-1.577 3.542-3.154 3.542-1.578 0-3.155-1.771-3.155-3.542 0-1.77 1.577-3.541 3.155-3.541 2.103 0 3.154 1.771 3.154 3.541zM6.31 305.982c0 1.771-1.578 3.541-3.155 3.541-1.578 0-3.155-1.77-3.155-3.541s1.577-3.541 3.155-3.541c1.577 0 3.154 1.77 3.154 3.541zm67.296 0c0 1.771-1.577 3.541-3.154 3.541-1.578 0-3.155-1.77-3.155-3.541s1.577-3.541 3.155-3.541c1.577 0 3.154 1.77 3.154 3.541zm67.297 0c0 1.771-1.577 3.541-3.154 3.541-1.578 0-3.155-1.77-3.155-3.541s1.577-3.541 3.155-3.541c1.577 0 3.154 1.77 3.154 3.541zm67.297 0c0 1.771-1.577 3.541-3.154 3.541s-3.155-1.77-3.155-3.541 1.578-3.541 3.155-3.541c1.577 0 3.154 1.77 3.154 3.541zm66.772 0c0 1.771-1.578 3.541-3.155 3.541-1.577 0-3.154-1.77-3.154-3.541s1.577-3.541 3.154-3.541 3.155 1.77 3.155 3.541zm67.297 0c0 1.771-1.577 3.541-3.154 3.541-1.578 0-3.155-1.77-3.155-3.541s1.577-3.541 3.155-3.541c1.577 0 3.154 1.77 3.154 3.541zm67.297 0c0 1.771-1.577 3.541-3.155 3.541-1.577 0-3.154-1.77-3.154-3.541s1.577-3.541 3.154-3.541c1.578 0 3.155 1.77 3.155 3.541zm66.771 0c0 1.771-1.577 3.541-3.154 3.541s-3.155-1.77-3.155-3.541 1.578-3.541 3.155-3.541c2.103 0 3.154 1.77 3.154 3.541zm67.298 0c0 1.771-1.578 3.541-3.155 3.541-1.577 0-3.155-1.77-3.155-3.541s1.578-3.541 3.155-3.541c1.577 0 3.155 1.77 3.155 3.541zm67.297 0c0 1.771-1.578 3.541-3.155 3.541-1.577 0-3.154-1.77-3.154-3.541s1.577-3.541 3.154-3.541 3.155 1.77 3.155 3.541zm67.297 0c0 1.771-1.578 3.541-3.155 3.541-1.577 0-3.155-1.77-3.155-3.541s1.578-3.541 3.155-3.541c1.577 0 3.155 1.77 3.155 3.541zm66.771 0c0 1.771-1.577 3.541-3.154 3.541-1.578 0-3.155-1.77-3.155-3.541s1.577-3.541 3.155-3.541c2.103 0 3.154 1.77 3.154 3.541zM6.31 381.523c0 1.771-1.578 3.541-3.155 3.541-1.578 0-3.155-1.77-3.155-3.541 0-1.77 1.577-3.541 3.155-3.541 1.577 0 3.154 1.181 3.154 3.541zm67.296 0c0 1.771-1.577 3.541-3.154 3.541-1.578 0-3.155-1.77-3.155-3.541 0-1.77 1.577-3.541 3.155-3.541 1.577 0 3.154 1.181 3.154 3.541zm67.297 0c0 1.771-1.577 3.541-3.154 3.541-1.578 0-3.155-1.77-3.155-3.541 0-1.77 1.577-3.541 3.155-3.541 1.577 0 3.154 1.181 3.154 3.541zm67.297 0c0 1.771-1.577 3.541-3.154 3.541s-3.155-1.77-3.155-3.541c0-1.77 1.578-3.541 3.155-3.541 1.577 0 3.154 1.181 3.154 3.541zm66.772 0c0 1.771-1.578 3.541-3.155 3.541-1.577 0-3.154-1.77-3.154-3.541 0-1.77 1.577-3.541 3.154-3.541s3.155 1.181 3.155 3.541zm67.297 0c0 1.771-1.577 3.541-3.154 3.541-1.578 0-3.155-1.77-3.155-3.541 0-1.77 1.577-3.541 3.155-3.541 1.577 0 3.154 1.181 3.154 3.541zm67.297 0c0 1.771-1.577 3.541-3.155 3.541-1.577 0-3.154-1.77-3.154-3.541 0-1.77 1.577-3.541 3.154-3.541 1.578 0 3.155 1.181 3.155 3.541zm66.771 0c0 1.771-1.577 3.541-3.154 3.541s-3.155-1.77-3.155-3.541c0-1.77 1.578-3.541 3.155-3.541 2.103 0 3.154 1.181 3.154 3.541zm67.298 0c0 1.771-1.578 3.541-3.155 3.541-1.577 0-3.155-1.77-3.155-3.541 0-1.77 1.578-3.541 3.155-3.541 1.577 0 3.155 1.181 3.155 3.541zm67.297 0c0 1.771-1.578 3.541-3.155 3.541-1.577 0-3.154-1.77-3.154-3.541 0-1.77 1.577-3.541 3.154-3.541s3.155 1.181 3.155 3.541zm67.297 0c0 1.771-1.578 3.541-3.155 3.541-1.577 0-3.155-1.77-3.155-3.541 0-1.77 1.578-3.541 3.155-3.541 1.577 0 3.155 1.181 3.155 3.541zm66.771 0c0 1.771-1.577 3.541-3.154 3.541-1.578 0-3.155-1.77-3.155-3.541 0-1.77 1.577-3.541 3.155-3.541 2.103 0 3.154 1.181 3.154 3.541zM6.31 457.067c0 1.77-1.578 3.541-3.155 3.541-1.578 0-3.155-1.771-3.155-3.541 0-1.771 1.577-3.542 3.155-3.542 1.577 0 3.154 1.181 3.154 3.542zm67.296 0c0 1.771-1.577 3.541-3.154 3.541-1.578 0-3.155-1.77-3.155-3.541 0-1.77 1.577-3.541 3.155-3.541 1.577-.59 3.154 1.18 3.154 3.541zm67.297 0c0 1.771-1.577 3.541-3.154 3.541-1.578 0-3.155-1.77-3.155-3.541 0-1.77 1.577-3.541 3.155-3.541 1.577-.59 3.154 1.18 3.154 3.541zm67.297 0c0 1.771-1.577 3.541-3.154 3.541s-3.155-1.77-3.155-3.541c0-1.77 1.578-3.541 3.155-3.541 1.577-.59 3.154 1.18 3.154 3.541zm66.772 0c0 1.771-1.578 3.541-3.155 3.541-1.577 0-3.154-1.77-3.154-3.541 0-1.77 1.577-3.541 3.154-3.541 1.577-.59 3.155 1.18 3.155 3.541zm67.297 0c0 1.77-1.577 3.541-3.154 3.541-1.578 0-3.155-1.771-3.155-3.541 0-1.771 1.577-3.542 3.155-3.542 1.577 0 3.154 1.181 3.154 3.542zm67.297 0c0 1.77-1.577 3.541-3.155 3.541-1.577 0-3.154-1.771-3.154-3.541 0-1.771 1.577-3.542 3.154-3.542 1.578 0 3.155 1.181 3.155 3.542zm66.771 0c0 1.771-1.577 3.541-3.154 3.541s-3.155-1.77-3.155-3.541c0-1.77 1.578-3.541 3.155-3.541 2.103-.59 3.154 1.18 3.154 3.541zm67.298 0c0 1.771-1.578 3.541-3.155 3.541-1.577 0-3.155-1.77-3.155-3.541 0-1.77 1.578-3.541 3.155-3.541 1.577-.59 3.155 1.18 3.155 3.541zm67.297 0c0 1.771-1.578 3.541-3.155 3.541-1.577 0-3.154-1.77-3.154-3.541 0-1.77 1.577-3.541 3.154-3.541 1.577-.59 3.155 1.18 3.155 3.541zm67.297 0c0 1.771-1.578 3.541-3.155 3.541-1.577 0-3.155-1.77-3.155-3.541 0-1.77 1.578-3.541 3.155-3.541 1.577-.59 3.155 1.18 3.155 3.541zm66.771 0c0 1.771-1.577 3.541-3.154 3.541-1.578 0-3.155-1.77-3.155-3.541 0-1.77 1.577-3.541 3.155-3.541 2.103-.59 3.154 1.18 3.154 3.541zM6.31 532.019c0 1.77-1.578 3.541-3.155 3.541-1.578 0-3.155-1.181-3.155-3.541 0-1.771 1.577-3.541 3.155-3.541 1.577 0 3.154 1.77 3.154 3.541zm67.296 0c0 1.77-1.577 3.541-3.154 3.541-1.578 0-3.155-1.771-3.155-3.541 0-1.771 1.577-3.541 3.155-3.541 1.577 0 3.154 1.77 3.154 3.541zm67.297 0c0 1.77-1.577 3.541-3.154 3.541-1.578 0-3.155-1.771-3.155-3.541 0-1.771 1.577-3.541 3.155-3.541 1.577 0 3.154 1.77 3.154 3.541zm67.297 0c0 1.77-1.577 3.541-3.154 3.541s-3.155-1.771-3.155-3.541c0-1.771 1.578-3.541 3.155-3.541 1.577 0 3.154 1.77 3.154 3.541zm66.772 0c0 1.77-1.578 3.541-3.155 3.541-1.577 0-3.154-1.771-3.154-3.541 0-1.771 1.577-3.541 3.154-3.541s3.155 1.77 3.155 3.541zm67.297 0c0 1.77-1.577 3.541-3.154 3.541-1.578 0-3.155-1.771-3.155-3.541 0-1.771 1.577-3.541 3.155-3.541 1.577 0 3.154 1.77 3.154 3.541zm67.297 0c0 1.77-1.577 3.541-3.155 3.541-1.577 0-3.154-1.771-3.154-3.541 0-1.771 1.577-3.541 3.154-3.541 1.578 0 3.155 1.77 3.155 3.541zm66.771 0c0 1.77-1.577 3.541-3.154 3.541s-3.155-1.771-3.155-3.541c0-1.771 1.578-3.541 3.155-3.541 2.103 0 3.154 1.77 3.154 3.541zm67.298 0c0 1.77-1.578 3.541-3.155 3.541-1.577 0-3.155-1.771-3.155-3.541 0-1.771 1.578-3.541 3.155-3.541 1.577 0 3.155 1.77 3.155 3.541zm67.297 0c0 1.77-1.578 3.541-3.155 3.541-1.577 0-3.154-1.771-3.154-3.541 0-1.771 1.577-3.541 3.154-3.541s3.155 1.77 3.155 3.541zm67.297 0c0 1.77-1.578 3.541-3.155 3.541-1.577 0-3.155-1.771-3.155-3.541 0-1.771 1.578-3.541 3.155-3.541 1.577 0 3.155 1.77 3.155 3.541zm66.771 0c0 1.77-1.577 3.541-3.154 3.541-1.578 0-3.155-1.771-3.155-3.541 0-1.771 1.577-3.541 3.155-3.541 2.103 0 3.154 1.77 3.154 3.541zM6.31 607.561c0 1.771-1.578 3.541-3.155 3.541-1.578 0-3.155-1.77-3.155-3.541 0-1.77 1.577-3.541 3.155-3.541 1.577 0 3.154 1.771 3.154 3.541zm67.296 0c0 1.771-1.577 3.541-3.154 3.541-1.578 0-3.155-1.77-3.155-3.541 0-1.77 1.577-3.541 3.155-3.541 1.577 0 3.154 1.771 3.154 3.541zm67.297 0c0 1.771-1.577 3.541-3.154 3.541-1.578 0-3.155-1.77-3.155-3.541 0-1.77 1.577-3.541 3.155-3.541 1.577 0 3.154 1.771 3.154 3.541zm67.297 0c0 1.771-1.577 3.541-3.154 3.541s-3.155-1.77-3.155-3.541c0-1.77 1.578-3.541 3.155-3.541 1.577 0 3.154 1.771 3.154 3.541zm66.772 0c0 1.771-1.578 3.541-3.155 3.541-1.577 0-3.154-1.77-3.154-3.541 0-1.77 1.577-3.541 3.154-3.541s3.155 1.771 3.155 3.541zm67.297 0c0 1.771-1.577 3.541-3.154 3.541-1.578 0-3.155-1.77-3.155-3.541 0-1.77 1.577-3.541 3.155-3.541 1.577 0 3.154 1.771 3.154 3.541zm67.297 0c0 1.771-1.577 3.541-3.155 3.541-1.577 0-3.154-1.77-3.154-3.541 0-1.77 1.577-3.541 3.154-3.541 1.578 0 3.155 1.771 3.155 3.541zm66.771 0c0 1.771-1.577 3.541-3.154 3.541s-3.155-1.77-3.155-3.541c0-1.77 1.578-3.541 3.155-3.541 2.103 0 3.154 1.771 3.154 3.541zm67.298 0c0 1.771-1.578 3.541-3.155 3.541-1.577 0-3.155-1.77-3.155-3.541 0-1.77 1.578-3.541 3.155-3.541 1.577 0 3.155 1.771 3.155 3.541zm67.297 0c0 1.771-1.578 3.541-3.155 3.541-1.577 0-3.154-1.77-3.154-3.541 0-1.77 1.577-3.541 3.154-3.541s3.155 1.771 3.155 3.541zm67.297 0c0 1.771-1.578 3.541-3.155 3.541-1.577 0-3.155-1.77-3.155-3.541 0-1.77 1.578-3.541 3.155-3.541 1.577 0 3.155 1.771 3.155 3.541zm66.771 0c0 1.771-1.577 3.541-3.154 3.541-1.578 0-3.155-1.77-3.155-3.541 0-1.77 1.577-3.541 3.155-3.541 2.103 0 3.154 1.771 3.154 3.541zM6.31 683.104c0 1.77-1.578 3.541-3.155 3.541-1.578 0-3.155-1.771-3.155-3.541 0-1.771 1.577-3.542 3.155-3.542 1.577 0 3.154 1.181 3.154 3.542zm67.296 0c0 1.77-1.577 3.541-3.154 3.541-1.578 0-3.155-1.771-3.155-3.541 0-1.771 1.577-3.542 3.155-3.542 1.577 0 3.154 1.181 3.154 3.542zm67.297 0c0 1.77-1.577 3.541-3.154 3.541-1.578 0-3.155-1.771-3.155-3.541 0-1.771 1.577-3.542 3.155-3.542 1.577 0 3.154 1.181 3.154 3.542zm67.297 0c0 1.77-1.577 3.541-3.154 3.541s-3.155-1.771-3.155-3.541c0-1.771 1.578-3.542 3.155-3.542 1.577 0 3.154 1.181 3.154 3.542zm66.772 0c0 1.77-1.578 3.541-3.155 3.541-1.577 0-3.154-1.771-3.154-3.541 0-1.771 1.577-3.542 3.154-3.542s3.155 1.181 3.155 3.542zm67.297 0c0 1.77-1.577 3.541-3.154 3.541-1.578 0-3.155-1.771-3.155-3.541 0-1.771 1.577-3.542 3.155-3.542 1.577 0 3.154 1.181 3.154 3.542zm67.297 0c0 1.77-1.577 3.541-3.155 3.541-1.577 0-3.154-1.771-3.154-3.541 0-1.771 1.577-3.542 3.154-3.542 1.578 0 3.155 1.181 3.155 3.542zm66.771 0c0 1.77-1.577 3.541-3.154 3.541s-3.155-1.771-3.155-3.541c0-1.771 1.578-3.542 3.155-3.542 2.103 0 3.154 1.181 3.154 3.542zm67.298 0c0 1.77-1.578 3.541-3.155 3.541-1.577 0-3.155-1.771-3.155-3.541 0-1.771 1.578-3.542 3.155-3.542 1.577 0 3.155 1.181 3.155 3.542zm67.297 0c0 1.77-1.578 3.541-3.155 3.541-1.577 0-3.154-1.771-3.154-3.541 0-1.771 1.577-3.542 3.154-3.542s3.155 1.181 3.155 3.542zm67.297 0c0 1.77-1.578 3.541-3.155 3.541-1.577 0-3.155-1.771-3.155-3.541 0-1.771 1.578-3.542 3.155-3.542 1.577 0 3.155 1.181 3.155 3.542zm66.771 0c0 1.77-1.577 3.541-3.154 3.541-1.578 0-3.155-1.771-3.155-3.541 0-1.771 1.577-3.542 3.155-3.542 2.103 0 3.154 1.181 3.154 3.542zM6.31 758.056c0 1.77-1.578 3.541-3.155 3.541-1.578 0-3.155-1.181-3.155-3.541 0-1.771 1.577-3.541 3.155-3.541 1.577 0 3.154 1.77 3.154 3.541zm67.296 0c0 1.77-1.577 3.541-3.154 3.541-1.578 0-3.155-1.771-3.155-3.541 0-1.771 1.577-3.541 3.155-3.541 1.577 0 3.154 1.77 3.154 3.541zm67.297 0c0 1.77-1.577 3.541-3.154 3.541-1.578 0-3.155-1.771-3.155-3.541 0-1.771 1.577-3.541 3.155-3.541 1.577 0 3.154 1.77 3.154 3.541zm67.297 0c0 1.77-1.577 3.541-3.154 3.541s-3.155-1.771-3.155-3.541c0-1.771 1.578-3.541 3.155-3.541 1.577 0 3.154 1.77 3.154 3.541zm66.772 0c0 1.77-1.578 3.541-3.155 3.541-1.577 0-3.154-1.771-3.154-3.541 0-1.771 1.577-3.541 3.154-3.541s3.155 1.77 3.155 3.541zm67.297 0c0 1.77-1.577 3.541-3.154 3.541-1.578 0-3.155-1.771-3.155-3.541 0-1.771 1.577-3.541 3.155-3.541 1.577 0 3.154 1.77 3.154 3.541zm67.297 0c0 1.77-1.577 3.541-3.155 3.541-1.577 0-3.154-1.771-3.154-3.541 0-1.771 1.577-3.541 3.154-3.541 1.578 0 3.155 1.77 3.155 3.541zm66.771 0c0 1.77-1.577 3.541-3.154 3.541s-3.155-1.771-3.155-3.541c0-1.771 1.578-3.541 3.155-3.541 2.103 0 3.154 1.77 3.154 3.541zm67.298 0c0 1.77-1.578 3.541-3.155 3.541-1.577 0-3.155-1.771-3.155-3.541 0-1.771 1.578-3.541 3.155-3.541 1.577 0 3.155 1.77 3.155 3.541zm67.297 0c0 1.77-1.578 3.541-3.155 3.541-1.577 0-3.154-1.771-3.154-3.541 0-1.771 1.577-3.541 3.154-3.541s3.155 1.77 3.155 3.541zm67.297 0c0 1.77-1.578 3.541-3.155 3.541-1.577 0-3.155-1.771-3.155-3.541 0-1.771 1.578-3.541 3.155-3.541 1.577 0 3.155 1.77 3.155 3.541zm66.771 0c0 1.77-1.577 3.541-3.154 3.541-1.578 0-3.155-1.771-3.155-3.541 0-1.771 1.577-3.541 3.155-3.541 2.103 0 3.154 1.77 3.154 3.541zM6.31 833.598c0 1.771-1.578 3.541-3.155 3.541-1.578 0-3.155-1.18-3.155-3.541 0-1.77 1.577-3.541 3.155-3.541 1.577 0 3.154 1.771 3.154 3.541zm67.296 0c0 1.771-1.577 3.541-3.154 3.541-1.578 0-3.155-1.77-3.155-3.541 0-1.77 1.577-3.541 3.155-3.541 1.577 0 3.154 1.771 3.154 3.541zm67.297 0c0 1.771-1.577 3.541-3.154 3.541-1.578 0-3.155-1.77-3.155-3.541 0-1.77 1.577-3.541 3.155-3.541 1.577 0 3.154 1.771 3.154 3.541zm67.297 0c0 1.771-1.577 3.541-3.154 3.541s-3.155-1.77-3.155-3.541c0-1.77 1.578-3.541 3.155-3.541 1.577 0 3.154 1.771 3.154 3.541zm66.772 0c0 1.771-1.578 3.541-3.155 3.541-1.577 0-3.154-1.77-3.154-3.541 0-1.77 1.577-3.541 3.154-3.541s3.155 1.771 3.155 3.541zm67.297 0c0 1.771-1.577 3.541-3.154 3.541-1.578 0-3.155-1.77-3.155-3.541 0-1.77 1.577-3.541 3.155-3.541 1.577 0 3.154 1.771 3.154 3.541zm67.297 0c0 1.771-1.577 3.541-3.155 3.541-1.577 0-3.154-1.77-3.154-3.541 0-1.77 1.577-3.541 3.154-3.541 1.578 0 3.155 1.771 3.155 3.541zm66.771 0c0 1.771-1.577 3.541-3.154 3.541s-3.155-1.77-3.155-3.541c0-1.77 1.578-3.541 3.155-3.541 2.103 0 3.154 1.771 3.154 3.541zm67.298 0c0 1.771-1.578 3.541-3.155 3.541-1.577 0-3.155-1.77-3.155-3.541 0-1.77 1.578-3.541 3.155-3.541 1.577 0 3.155 1.771 3.155 3.541zm67.297 0c0 1.771-1.578 3.541-3.155 3.541-1.577 0-3.154-1.77-3.154-3.541 0-1.77 1.577-3.541 3.154-3.541s3.155 1.771 3.155 3.541zm67.297 0c0 1.771-1.578 3.541-3.155 3.541-1.577 0-3.155-1.77-3.155-3.541 0-1.77 1.578-3.541 3.155-3.541 1.577 0 3.155 1.771 3.155 3.541zm66.771 0c0 1.771-1.577 3.541-3.154 3.541-1.578 0-3.155-1.77-3.155-3.541 0-1.77 1.577-3.541 3.155-3.541 2.103 0 3.154 1.771 3.154 3.541z" fill="#E5E5E5"/></svg>