<svg width="377" height="635" fill="none" xmlns="http://www.w3.org/2000/svg"><path d="M4.158 3.555c0 1.788-.53 2.683-1.589 2.683-1.06 0-1.59-.895-1.59-2.683 0-1.341.795-2.682 1.59-2.682s1.59 1.34 1.59 2.682zm33.91 0c0 1.341-.795 2.683-1.59 2.683s-1.59-1.342-1.59-2.683c0-1.341.53-2.682 1.59-2.682.795 0 1.59 1.34 1.59 2.682zm33.908 0c0 1.341-.794 2.683-1.59 2.683-.794 0-1.589-1.342-1.589-2.683 0-1.341.795-2.682 1.59-2.682s1.59 1.34 1.59 2.682zm33.909 0c0 1.341-.794 2.683-1.589 2.683-.795 0-1.589-1.342-1.589-2.683 0-1.341.794-2.682 1.589-2.682.795 0 1.589 1.34 1.589 2.682zm33.644 0c0 1.341-.795 2.683-1.589 2.683-.795 0-1.59-1.342-1.59-2.683 0-1.341.795-2.682 1.59-2.682.794 0 1.589 1.34 1.589 2.682zm33.91 0c0 1.341-.795 2.683-1.589 2.683-.795 0-1.59-.895-1.59-2.683 0-1.341.795-2.682 1.59-2.682.794 0 1.589 1.34 1.589 2.682zm33.909 0c0 1.341-.795 2.683-1.59 2.683s-1.854-.895-1.854-2.683c0-1.341.795-2.682 1.589-2.682.795 0 1.855 1.34 1.855 2.682zm33.643 0c0 1.341-.794 2.683-1.589 2.683-.795 0-1.59-1.342-1.59-2.683 0-1.341.795-2.682 1.59-2.682 1.06 0 1.589 1.34 1.589 2.682zm33.91 0c0 1.341-.795 2.683-1.59 2.683s-1.589-1.342-1.589-2.683c0-1.341.794-2.682 1.589-2.682.795 0 1.59 1.34 1.59 2.682zm33.909 0c0 1.341-.795 2.683-1.59 2.683-.794 0-1.589-1.342-1.589-2.683 0-1.341.795-2.682 1.589-2.682.795 0 1.59 1.34 1.59 2.682zm33.909 0c0 1.341-.795 2.683-1.59 2.683-.794 0-1.589-1.342-1.589-2.683 0-1.341.795-2.682 1.589-2.682.795 0 1.59 1.34 1.59 2.682zm33.644 0c0 1.341-.795 2.683-1.589 2.683-.795 0-1.59-1.342-1.59-2.683 0-1.341.795-2.682 1.59-2.682 1.059 0 1.589 1.34 1.589 2.682zM4.158 60.782c0 1.341-.53 2.683-1.589 2.683-1.06 0-1.59-1.342-1.59-2.683 0-1.341.795-2.682 1.59-2.682s1.59.894 1.59 2.682zm33.91 0c0 1.341-.795 2.683-1.59 2.683s-1.59-1.342-1.59-2.683c0-1.341.795-2.682 1.59-2.682s1.59.894 1.59 2.682zm33.908 0c0 1.341-.794 2.683-1.59 2.683-.794 0-1.589-1.342-1.589-2.683 0-1.341.795-2.682 1.59-2.682s1.59.894 1.59 2.682zm33.909 0c0 1.341-.794 2.683-1.589 2.683-.795 0-1.589-1.342-1.589-2.683 0-1.341.794-2.682 1.589-2.682.795 0 1.589.894 1.589 2.682zm33.644 0c0 1.341-.795 2.683-1.589 2.683-.795 0-1.59-1.342-1.59-2.683 0-1.341.795-2.682 1.59-2.682.794 0 1.589.894 1.589 2.682zm33.91 0c0 1.341-.795 2.683-1.589 2.683-.795 0-1.59-1.342-1.59-2.683 0-1.341.795-2.682 1.59-2.682.794 0 1.589.894 1.589 2.682zm33.909 0c0 1.341-.795 2.683-1.59 2.683s-1.59-1.342-1.59-2.683c0-1.341.795-2.682 1.59-2.682s1.59.894 1.59 2.682zm33.643 0c0 1.341-.794 2.683-1.589 2.683-.795 0-1.59-1.342-1.59-2.683 0-1.341.795-2.682 1.59-2.682 1.06 0 1.589.894 1.589 2.682zm33.91 0c0 1.341-.795 2.683-1.59 2.683s-1.589-1.342-1.589-2.683c0-1.341.794-2.682 1.589-2.682.795 0 1.59.894 1.59 2.682zm33.909 0c0 1.341-.795 2.683-1.59 2.683-.794 0-1.589-1.342-1.589-2.683 0-1.341.795-2.682 1.589-2.682.795 0 1.59.894 1.59 2.682zm33.909 0c0 1.341-.795 2.683-1.59 2.683-.794 0-1.589-1.342-1.589-2.683 0-1.341.795-2.682 1.589-2.682.795 0 1.59.894 1.59 2.682zm33.643 0c0 1.341-.794 2.683-1.589 2.683-.795 0-1.589-1.342-1.589-2.683 0-1.341.794-2.682 1.589-2.682 1.06 0 1.589.894 1.589 2.682zM4.158 118.009c0 1.341-.794 2.683-1.589 2.683-.795 0-1.59-1.342-1.59-2.683 0-1.341.795-2.682 1.59-2.682s1.59.894 1.59 2.682zm33.91-.001c0 1.342-.795 2.683-1.59 2.683s-1.59-1.341-1.59-2.683c0-1.341.795-2.682 1.59-2.682.795-.447 1.59.894 1.59 2.682zm33.908 0c0 1.342-.794 2.683-1.59 2.683-.794 0-1.589-1.341-1.589-2.683 0-1.341.795-2.682 1.59-2.682.795-.447 1.59.894 1.59 2.682zm33.909 0c0 1.342-.794 2.683-1.589 2.683-.795 0-1.589-1.341-1.589-2.683 0-1.341.794-2.682 1.589-2.682.795-.447 1.589.894 1.589 2.682zm33.644 0c0 1.342-.795 2.683-1.589 2.683-.795 0-1.59-1.341-1.59-2.683 0-1.341.795-2.682 1.59-2.682.794-.447 1.589.894 1.589 2.682zm33.91.001c0 1.341-.795 2.683-1.589 2.683-.795 0-1.59-1.342-1.59-2.683 0-1.341.795-2.682 1.59-2.682.794 0 1.589.894 1.589 2.682zm33.909 0c0 1.341-.795 2.683-1.59 2.683s-1.59-1.342-1.59-2.683c0-1.341.795-2.682 1.59-2.682s1.59.894 1.59 2.682zm33.643-.001c0 1.342-.794 2.683-1.589 2.683-.795 0-1.59-1.341-1.59-2.683 0-1.341.795-2.682 1.59-2.682 1.06-.447 1.589.894 1.589 2.682zm33.91 0c0 1.342-.795 2.683-1.59 2.683s-1.589-1.341-1.589-2.683c0-1.341.794-2.682 1.589-2.682.795-.447 1.59.894 1.59 2.682zm33.909 0c0 1.342-.795 2.683-1.59 2.683-.794 0-1.589-1.341-1.589-2.683 0-1.341.795-2.682 1.589-2.682.795-.447 1.59.894 1.59 2.682zm33.909 0c0 1.342-.795 2.683-1.59 2.683-.794 0-1.589-1.341-1.589-2.683 0-1.341.795-2.682 1.589-2.682.795-.447 1.59.894 1.59 2.682zm33.643 0c0 1.342-.794 2.683-1.589 2.683-.795 0-1.589-1.341-1.589-2.683 0-1.341.794-2.682 1.589-2.682 1.06-.447 1.589.894 1.589 2.682zM4.158 174.788c0 1.342-.794 2.683-1.589 2.683-.795 0-1.59-.894-1.59-2.683 0-1.341.795-2.682 1.59-2.682s1.59 1.341 1.59 2.682zm33.91 0c0 1.342-.795 2.683-1.59 2.683s-1.59-1.341-1.59-2.683c0-1.341.795-2.682 1.59-2.682s1.59 1.341 1.59 2.682zm33.908 0c0 1.342-.794 2.683-1.59 2.683-.794 0-1.589-1.341-1.589-2.683 0-1.341.795-2.682 1.59-2.682s1.59 1.341 1.59 2.682zm33.909 0c0 1.342-.794 2.683-1.589 2.683-.795 0-1.589-1.341-1.589-2.683 0-1.341.794-2.682 1.589-2.682.795 0 1.589 1.341 1.589 2.682zm33.644 0c0 1.342-.795 2.683-1.589 2.683-.795 0-1.59-1.341-1.59-2.683 0-1.341.795-2.682 1.59-2.682.794 0 1.589 1.341 1.589 2.682zm33.91 0c0 1.342-.795 2.683-1.589 2.683-.795 0-1.59-1.341-1.59-2.683 0-1.341.795-2.682 1.59-2.682.794 0 1.589 1.341 1.589 2.682zm33.909 0c0 1.342-.795 2.683-1.59 2.683s-1.59-1.341-1.59-2.683c0-1.341.795-2.682 1.59-2.682s1.59 1.341 1.59 2.682zm33.643 0c0 1.342-.794 2.683-1.589 2.683-.795 0-1.59-1.341-1.59-2.683 0-1.341.795-2.682 1.59-2.682 1.06 0 1.589 1.341 1.589 2.682zm33.91 0c0 1.342-.795 2.683-1.59 2.683s-1.589-1.341-1.589-2.683c0-1.341.794-2.682 1.589-2.682.795 0 1.59 1.341 1.59 2.682zm33.909 0c0 1.342-.795 2.683-1.59 2.683-.794 0-1.589-1.341-1.589-2.683 0-1.341.795-2.682 1.589-2.682.795 0 1.59 1.341 1.59 2.682zm33.909 0c0 1.342-.795 2.683-1.59 2.683-.794 0-1.589-1.341-1.589-2.683 0-1.341.795-2.682 1.589-2.682.795 0 1.59 1.341 1.59 2.682zm33.643 0c0 1.342-.794 2.683-1.589 2.683-.795 0-1.589-1.341-1.589-2.683 0-1.341.794-2.682 1.589-2.682 1.06 0 1.589 1.341 1.589 2.682zM4.158 232.016c0 1.341-.794 2.682-1.589 2.682-.795 0-1.59-1.341-1.59-2.682 0-1.342.795-2.683 1.59-2.683s1.59 1.341 1.59 2.683zm33.91 0c0 1.341-.795 2.682-1.59 2.682s-1.59-1.341-1.59-2.682c0-1.342.795-2.683 1.59-2.683s1.59 1.341 1.59 2.683zm33.908 0c0 1.341-.794 2.682-1.59 2.682-.794 0-1.589-1.341-1.589-2.682 0-1.342.795-2.683 1.59-2.683s1.59 1.341 1.59 2.683zm33.909 0c0 1.341-.794 2.682-1.589 2.682-.795 0-1.589-1.341-1.589-2.682 0-1.342.794-2.683 1.589-2.683.795 0 1.589 1.341 1.589 2.683zm33.644 0c0 1.341-.795 2.682-1.589 2.682-.795 0-1.59-1.341-1.59-2.682 0-1.342.795-2.683 1.59-2.683.794 0 1.589 1.341 1.589 2.683zm33.91 0c0 1.341-.795 2.682-1.589 2.682-.795 0-1.59-1.341-1.59-2.682 0-1.342.795-2.683 1.59-2.683.794 0 1.589 1.341 1.589 2.683zm33.909 0c0 1.341-.795 2.682-1.59 2.682s-1.59-1.341-1.59-2.682c0-1.342.795-2.683 1.59-2.683s1.59 1.341 1.59 2.683zm33.643 0c0 1.341-.794 2.682-1.589 2.682-.795 0-1.59-1.341-1.59-2.682 0-1.342.795-2.683 1.59-2.683 1.06 0 1.589 1.341 1.589 2.683zm33.91 0c0 1.341-.795 2.682-1.59 2.682s-1.589-1.341-1.589-2.682c0-1.342.794-2.683 1.589-2.683.795 0 1.59 1.341 1.59 2.683zm33.909 0c0 1.341-.795 2.682-1.59 2.682-.794 0-1.589-1.341-1.589-2.682 0-1.342.795-2.683 1.589-2.683.795 0 1.59 1.341 1.59 2.683zm33.909 0c0 1.341-.795 2.682-1.59 2.682-.794 0-1.589-1.341-1.589-2.682 0-1.342.795-2.683 1.589-2.683.795 0 1.59 1.341 1.59 2.683zm33.643 0c0 1.341-.794 2.682-1.589 2.682-.795 0-1.589-1.341-1.589-2.682 0-1.342.794-2.683 1.589-2.683 1.06 0 1.589 1.341 1.589 2.683zM4.158 289.241c0 1.341-.794 2.683-1.589 2.683-.795 0-1.59-1.342-1.59-2.683 0-1.341.795-2.682 1.59-2.682s1.59.894 1.59 2.682zm33.91 0c0 1.341-.795 2.683-1.59 2.683s-1.59-1.342-1.59-2.683c0-1.341.795-2.682 1.59-2.682s1.59.894 1.59 2.682zm33.908 0c0 1.341-.794 2.683-1.59 2.683-.794 0-1.589-1.342-1.589-2.683 0-1.341.795-2.682 1.59-2.682s1.59.894 1.59 2.682zm33.909 0c0 1.341-.794 2.683-1.589 2.683-.795 0-1.589-1.342-1.589-2.683 0-1.341.794-2.682 1.589-2.682.795 0 1.589.894 1.589 2.682zm33.644 0c0 1.341-.795 2.683-1.589 2.683-.795 0-1.59-1.342-1.59-2.683 0-1.341.795-2.682 1.59-2.682.794 0 1.589.894 1.589 2.682zm33.91 0c0 1.341-.795 2.683-1.589 2.683-.795 0-1.59-1.342-1.59-2.683 0-1.341.795-2.682 1.59-2.682.794 0 1.589.894 1.589 2.682zm33.909 0c0 1.341-.795 2.683-1.59 2.683s-1.59-1.342-1.59-2.683c0-1.341.795-2.682 1.59-2.682s1.59.894 1.59 2.682zm33.643 0c0 1.341-.794 2.683-1.589 2.683-.795 0-1.59-1.342-1.59-2.683 0-1.341.795-2.682 1.59-2.682 1.06 0 1.589.894 1.589 2.682zm33.91 0c0 1.341-.795 2.683-1.59 2.683s-1.589-1.342-1.589-2.683c0-1.341.794-2.682 1.589-2.682.795 0 1.59.894 1.59 2.682zm33.909 0c0 1.341-.795 2.683-1.59 2.683-.794 0-1.589-1.342-1.589-2.683 0-1.341.795-2.682 1.589-2.682.795 0 1.59.894 1.59 2.682zm33.909 0c0 1.341-.795 2.683-1.59 2.683-.794 0-1.589-1.342-1.589-2.683 0-1.341.795-2.682 1.589-2.682.795 0 1.59.894 1.59 2.682zm33.643 0c0 1.341-.794 2.683-1.589 2.683-.795 0-1.589-1.342-1.589-2.683 0-1.341.794-2.682 1.589-2.682 1.06 0 1.589.894 1.589 2.682zM4.158 346.469c0 1.341-.794 2.682-1.589 2.682-.795 0-1.59-1.341-1.59-2.682 0-1.342.795-2.683 1.59-2.683s1.59.894 1.59 2.683zm33.91 0c0 1.341-.795 2.682-1.59 2.682s-1.59-1.341-1.59-2.682.795-2.683 1.59-2.683c.795-.447 1.59.895 1.59 2.683zm33.908 0c0 1.341-.794 2.682-1.59 2.682-.794 0-1.589-1.341-1.589-2.682s.795-2.683 1.59-2.683c.795-.447 1.59.895 1.59 2.683zm33.909 0c0 1.341-.794 2.682-1.589 2.682-.795 0-1.589-1.341-1.589-2.682s.794-2.683 1.589-2.683c.795-.447 1.589.895 1.589 2.683zm33.644 0c0 1.341-.795 2.682-1.589 2.682-.795 0-1.59-1.341-1.59-2.682s.795-2.683 1.59-2.683c.794-.447 1.589.895 1.589 2.683zm33.91-.001c0 1.341-.795 2.683-1.589 2.683-.795 0-1.59-1.342-1.59-2.683 0-1.341.795-2.682 1.59-2.682.794 0 1.589.894 1.589 2.682zm33.909 0c0 1.341-.795 2.683-1.59 2.683s-1.59-1.342-1.59-2.683c0-1.341.795-2.682 1.59-2.682s1.59.894 1.59 2.682zm33.643.001c0 1.341-.794 2.682-1.589 2.682-.795 0-1.59-1.341-1.59-2.682s.795-2.683 1.59-2.683c1.06-.447 1.589.895 1.589 2.683zm33.91 0c0 1.341-.795 2.682-1.59 2.682s-1.589-1.341-1.589-2.682.794-2.683 1.589-2.683c.795-.447 1.59.895 1.59 2.683zm33.909 0c0 1.341-.795 2.682-1.59 2.682-.794 0-1.589-1.341-1.589-2.682s.795-2.683 1.589-2.683c.795-.447 1.59.895 1.59 2.683zm33.909 0c0 1.341-.795 2.682-1.59 2.682-.794 0-1.589-1.341-1.589-2.682s.795-2.683 1.589-2.683c.795-.447 1.59.895 1.59 2.683zm33.643 0c0 1.341-.794 2.682-1.589 2.682-.795 0-1.589-1.341-1.589-2.682s.794-2.683 1.589-2.683c1.06-.447 1.589.895 1.589 2.683zM4.158 403.248c0 1.341-.794 2.682-1.589 2.682-.795 0-1.59-.894-1.59-2.682 0-1.341.795-2.683 1.59-2.683s1.59 1.342 1.59 2.683zm33.91 0c0 1.342-.795 2.683-1.59 2.683s-1.59-1.341-1.59-2.683c0-1.341.795-2.682 1.59-2.682s1.59 1.341 1.59 2.682zm33.908 0c0 1.342-.794 2.683-1.59 2.683-.794 0-1.589-1.341-1.589-2.683 0-1.341.795-2.682 1.59-2.682s1.59 1.341 1.59 2.682zm33.909 0c0 1.342-.794 2.683-1.589 2.683-.795 0-1.589-1.341-1.589-2.683 0-1.341.794-2.682 1.589-2.682.795 0 1.589 1.341 1.589 2.682zm33.644 0c0 1.342-.795 2.683-1.589 2.683-.795 0-1.59-1.341-1.59-2.683 0-1.341.795-2.682 1.59-2.682.794 0 1.589 1.341 1.589 2.682zm33.91 0c0 1.342-.795 2.683-1.589 2.683-.795 0-1.59-1.341-1.59-2.683 0-1.341.795-2.682 1.59-2.682.794 0 1.589 1.341 1.589 2.682zm33.909 0c0 1.342-.795 2.683-1.59 2.683s-1.59-1.341-1.59-2.683c0-1.341.795-2.682 1.59-2.682s1.59 1.341 1.59 2.682zm33.643 0c0 1.342-.794 2.683-1.589 2.683-.795 0-1.59-1.341-1.59-2.683 0-1.341.795-2.682 1.59-2.682 1.06 0 1.589 1.341 1.589 2.682zm33.91 0c0 1.342-.795 2.683-1.59 2.683s-1.589-1.341-1.589-2.683c0-1.341.794-2.682 1.589-2.682.795 0 1.59 1.341 1.59 2.682zm33.909 0c0 1.342-.795 2.683-1.59 2.683-.794 0-1.589-1.341-1.589-2.683 0-1.341.795-2.682 1.589-2.682.795 0 1.59 1.341 1.59 2.682zm33.909 0c0 1.342-.795 2.683-1.59 2.683-.794 0-1.589-1.341-1.589-2.683 0-1.341.795-2.682 1.589-2.682.795 0 1.59 1.341 1.59 2.682zm33.643 0c0 1.342-.794 2.683-1.589 2.683-.795 0-1.589-1.341-1.589-2.683 0-1.341.794-2.682 1.589-2.682 1.06 0 1.589 1.341 1.589 2.682zM4.158 460.475c0 1.341-.794 2.682-1.589 2.682-.795 0-1.59-1.341-1.59-2.682s.795-2.683 1.59-2.683 1.59 1.342 1.59 2.683zm33.91 0c0 1.341-.795 2.682-1.59 2.682s-1.59-1.341-1.59-2.682.795-2.683 1.59-2.683 1.59 1.342 1.59 2.683zm33.908 0c0 1.341-.794 2.682-1.59 2.682-.794 0-1.589-1.341-1.589-2.682s.795-2.683 1.59-2.683 1.59 1.342 1.59 2.683zm33.909 0c0 1.341-.794 2.682-1.589 2.682-.795 0-1.589-1.341-1.589-2.682s.794-2.683 1.589-2.683c.795 0 1.589 1.342 1.589 2.683zm33.644 0c0 1.341-.795 2.682-1.589 2.682-.795 0-1.59-1.341-1.59-2.682s.795-2.683 1.59-2.683c.794 0 1.589 1.342 1.589 2.683zm33.91 0c0 1.341-.795 2.682-1.589 2.682-.795 0-1.59-1.341-1.59-2.682s.795-2.683 1.59-2.683c.794 0 1.589 1.342 1.589 2.683zm33.909 0c0 1.341-.795 2.682-1.59 2.682s-1.59-1.341-1.59-2.682.795-2.683 1.59-2.683 1.59 1.342 1.59 2.683zm33.643 0c0 1.341-.794 2.682-1.589 2.682-.795 0-1.59-1.341-1.59-2.682s.795-2.683 1.59-2.683c1.06 0 1.589 1.342 1.589 2.683zm33.91 0c0 1.341-.795 2.682-1.59 2.682s-1.589-1.341-1.589-2.682.794-2.683 1.589-2.683c.795 0 1.59 1.342 1.59 2.683zm33.909 0c0 1.341-.795 2.682-1.59 2.682-.794 0-1.589-1.341-1.589-2.682s.795-2.683 1.589-2.683c.795 0 1.59 1.342 1.59 2.683zm33.909 0c0 1.341-.795 2.682-1.59 2.682-.794 0-1.589-1.341-1.589-2.682s.795-2.683 1.589-2.683c.795 0 1.59 1.342 1.59 2.683zm33.643 0c0 1.341-.794 2.682-1.589 2.682-.795 0-1.589-1.341-1.589-2.682s.794-2.683 1.589-2.683c1.06 0 1.589 1.342 1.589 2.683zM4.158 517.702c0 1.341-.794 2.683-1.589 2.683-.795 0-1.59-1.342-1.59-2.683 0-1.341.795-2.682 1.59-2.682s1.59.894 1.59 2.682zm33.91 0c0 1.341-.795 2.683-1.59 2.683s-1.59-1.342-1.59-2.683c0-1.341.795-2.682 1.59-2.682s1.59.894 1.59 2.682zm33.908 0c0 1.341-.794 2.683-1.59 2.683-.794 0-1.589-1.342-1.589-2.683 0-1.341.795-2.682 1.59-2.682s1.59.894 1.59 2.682zm33.909 0c0 1.341-.794 2.683-1.589 2.683-.795 0-1.589-1.342-1.589-2.683 0-1.341.794-2.682 1.589-2.682.795 0 1.589.894 1.589 2.682zm33.644 0c0 1.341-.795 2.683-1.589 2.683-.795 0-1.59-1.342-1.59-2.683 0-1.341.795-2.682 1.59-2.682.794 0 1.589.894 1.589 2.682zm33.91 0c0 1.341-.795 2.683-1.589 2.683-.795 0-1.59-1.342-1.59-2.683 0-1.341.795-2.682 1.59-2.682.794 0 1.589.894 1.589 2.682zm33.909 0c0 1.341-.795 2.683-1.59 2.683s-1.59-1.342-1.59-2.683c0-1.341.795-2.682 1.59-2.682s1.59.894 1.59 2.682zm33.643 0c0 1.341-.794 2.683-1.589 2.683-.795 0-1.59-1.342-1.59-2.683 0-1.341.795-2.682 1.59-2.682 1.06 0 1.589.894 1.589 2.682zm33.91 0c0 1.341-.795 2.683-1.59 2.683s-1.589-1.342-1.589-2.683c0-1.341.794-2.682 1.589-2.682.795 0 1.59.894 1.59 2.682zm33.909 0c0 1.341-.795 2.683-1.59 2.683-.794 0-1.589-1.342-1.589-2.683 0-1.341.795-2.682 1.589-2.682.795 0 1.59.894 1.59 2.682zm33.909 0c0 1.341-.795 2.683-1.59 2.683-.794 0-1.589-1.342-1.589-2.683 0-1.341.795-2.682 1.589-2.682.795 0 1.59.894 1.59 2.682zm33.643 0c0 1.341-.794 2.683-1.589 2.683-.795 0-1.589-1.342-1.589-2.683 0-1.341.794-2.682 1.589-2.682 1.06 0 1.589.894 1.589 2.682zM4.158 574.481c0 1.342-.794 2.683-1.589 2.683-.795 0-1.59-.894-1.59-2.683 0-1.341.795-2.682 1.59-2.682s1.59 1.341 1.59 2.682zm33.91.001c0 1.341-.795 2.682-1.59 2.682s-1.59-1.341-1.59-2.682.795-2.683 1.59-2.683 1.59 1.342 1.59 2.683zm33.908 0c0 1.341-.794 2.682-1.59 2.682-.794 0-1.589-1.341-1.589-2.682s.795-2.683 1.59-2.683 1.59 1.342 1.59 2.683zm33.909 0c0 1.341-.794 2.682-1.589 2.682-.795 0-1.589-1.341-1.589-2.682s.794-2.683 1.589-2.683c.795 0 1.589 1.342 1.589 2.683zm33.644 0c0 1.341-.795 2.682-1.589 2.682-.795 0-1.59-1.341-1.59-2.682s.795-2.683 1.59-2.683c.794 0 1.589 1.342 1.589 2.683zm33.91 0c0 1.341-.795 2.682-1.589 2.682-.795 0-1.59-1.341-1.59-2.682s.795-2.683 1.59-2.683c.794 0 1.589 1.342 1.589 2.683zm33.909 0c0 1.341-.795 2.682-1.59 2.682s-1.59-1.341-1.59-2.682.795-2.683 1.59-2.683 1.59 1.342 1.59 2.683zm33.643 0c0 1.341-.794 2.682-1.589 2.682-.795 0-1.59-1.341-1.59-2.682s.795-2.683 1.59-2.683c1.06 0 1.589 1.342 1.589 2.683zm33.91 0c0 1.341-.795 2.682-1.59 2.682s-1.589-1.341-1.589-2.682.794-2.683 1.589-2.683c.795 0 1.59 1.342 1.59 2.683zm33.909 0c0 1.341-.795 2.682-1.59 2.682-.794 0-1.589-1.341-1.589-2.682s.795-2.683 1.589-2.683c.795 0 1.59 1.342 1.59 2.683zm33.909 0c0 1.341-.795 2.682-1.59 2.682-.794 0-1.589-1.341-1.589-2.682s.795-2.683 1.589-2.683c.795 0 1.59 1.342 1.59 2.683zm33.643 0c0 1.341-.794 2.682-1.589 2.682-.795 0-1.589-1.341-1.589-2.682s.794-2.683 1.589-2.683c1.06 0 1.589 1.342 1.589 2.683zM4.158 631.708c0 1.342-.794 2.683-1.589 2.683-.795 0-1.59-.894-1.59-2.683 0-1.341.795-2.682 1.59-2.682s1.59 1.341 1.59 2.682zm33.91 0c0 1.342-.795 2.683-1.59 2.683s-1.59-1.341-1.59-2.683c0-1.341.795-2.682 1.59-2.682s1.59 1.341 1.59 2.682zm33.908 0c0 1.342-.794 2.683-1.59 2.683-.794 0-1.589-1.341-1.589-2.683 0-1.341.795-2.682 1.59-2.682s1.59 1.341 1.59 2.682zm33.909 0c0 1.342-.794 2.683-1.589 2.683-.795 0-1.589-1.341-1.589-2.683 0-1.341.794-2.682 1.589-2.682.795 0 1.589 1.341 1.589 2.682zm33.644 0c0 1.342-.795 2.683-1.589 2.683-.795 0-1.59-1.341-1.59-2.683 0-1.341.795-2.682 1.59-2.682.794 0 1.589 1.341 1.589 2.682zm33.91 0c0 1.342-.795 2.683-1.589 2.683-.795 0-1.59-1.341-1.59-2.683 0-1.341.795-2.682 1.59-2.682.794 0 1.589 1.341 1.589 2.682zm33.909 0c0 1.342-.795 2.683-1.59 2.683s-1.59-1.341-1.59-2.683c0-1.341.795-2.682 1.59-2.682s1.59 1.341 1.59 2.682zm33.643 0c0 1.342-.794 2.683-1.589 2.683-.795 0-1.59-1.341-1.59-2.683 0-1.341.795-2.682 1.59-2.682 1.06 0 1.589 1.341 1.589 2.682zm33.91 0c0 1.342-.795 2.683-1.59 2.683s-1.589-1.341-1.589-2.683c0-1.341.794-2.682 1.589-2.682.795 0 1.59 1.341 1.59 2.682zm33.909 0c0 1.342-.795 2.683-1.59 2.683-.794 0-1.589-1.341-1.589-2.683 0-1.341.795-2.682 1.589-2.682.795 0 1.59 1.341 1.59 2.682zm33.909 0c0 1.342-.795 2.683-1.59 2.683-.794 0-1.589-1.341-1.589-2.683 0-1.341.795-2.682 1.589-2.682.795 0 1.59 1.341 1.59 2.682zm33.643 0c0 1.342-.794 2.683-1.589 2.683-.795 0-1.589-1.341-1.589-2.683 0-1.341.794-2.682 1.589-2.682 1.06 0 1.589 1.341 1.589 2.682z" fill="#E5E5E5"/></svg>