<svg width="15" height="14" fill="none" xmlns="http://www.w3.org/2000/svg"><path d="M3.782 4.864H1.074a.218.218 0 00-.218.217v8.701c0 .12.097.218.218.218h2.708c.12 0 .218-.098.218-.218v-8.7a.218.218 0 00-.218-.218zM2.429.539c-.986 0-1.787.8-1.787 1.785 0 .985.801 1.786 1.787 1.786.985 0 1.786-.801 1.786-1.786S3.414.539 2.429.539zm8.242 4.109c-1.087 0-1.892.468-2.38.999v-.565a.218.218 0 00-.217-.218H5.48a.218.218 0 00-.217.218v8.7c0 .121.097.218.217.218h2.703c.12 0 .217-.097.217-.217V9.478c0-1.45.394-2.016 1.406-2.016 1.101 0 1.189.906 1.189 2.09v4.23c0 .121.097.218.217.218h2.704c.12 0 .217-.097.217-.217V9.01c0-2.157-.411-4.362-3.462-4.362z" fill="#707070"/></svg>