<svg width="1193" height="612" fill="none" xmlns="http://www.w3.org/2000/svg"><path d="M5.177 2.588c0 1.726-.863 2.589-2.589 2.589C.863 5.177 0 4.314 0 2.588 0 1.294 1.294 0 2.588 0c1.295 0 2.589 1.294 2.589 2.588zm55.22 0c0 1.295-1.295 2.589-2.589 2.589S55.22 3.883 55.22 2.588c0-1.294.863-2.588 2.588-2.588 1.294 0 2.589 1.294 2.589 2.588zm55.219 0c0 1.295-1.294 2.589-2.589 2.589-1.294 0-2.588-1.294-2.588-2.589 0-1.294 1.294-2.588 2.588-2.588 1.295 0 2.589 1.294 2.589 2.588zm55.22 0c0 1.295-1.295 2.589-2.589 2.589s-2.588-1.294-2.588-2.589c0-1.294 1.294-2.588 2.588-2.588s2.589 1.294 2.589 2.588zm54.787 0c0 1.295-1.294 2.589-2.588 2.589s-2.589-1.294-2.589-2.589c0-1.294 1.295-2.588 2.589-2.588s2.588 1.294 2.588 2.588zm55.22 0c0 1.295-1.294 2.589-2.589 2.589-1.294 0-2.588-.863-2.588-2.589 0-1.294 1.294-2.588 2.588-2.588 1.295 0 2.589 1.294 2.589 2.588zm55.22 0c0 1.295-1.294 2.589-2.589 2.589-1.294 0-3.019-.863-3.019-2.589 0-1.294 1.294-2.588 2.588-2.588s3.02 1.294 3.02 2.588zm54.788 0c0 1.295-1.295 2.589-2.589 2.589s-2.588-1.294-2.588-2.589c0-1.294 1.294-2.588 2.588-2.588 1.726 0 2.589 1.294 2.589 2.588zm55.219 0c0 1.295-1.294 2.589-2.588 2.589s-2.588-1.294-2.588-2.589c0-1.294 1.294-2.588 2.588-2.588s2.588 1.294 2.588 2.588zm55.22 0c0 1.295-1.294 2.589-2.588 2.589-1.295 0-2.589-1.294-2.589-2.589 0-1.294 1.294-2.588 2.589-2.588 1.294 0 2.588 1.294 2.588 2.588zm55.219 0c0 1.295-1.294 2.589-2.588 2.589s-2.588-1.294-2.588-2.589c0-1.294 1.294-2.588 2.588-2.588s2.588 1.294 2.588 2.588zm54.789 0c0 1.295-1.294 2.589-2.588 2.589-1.295 0-2.589-1.294-2.589-2.589 0-1.294 1.294-2.588 2.589-2.588 1.725 0 2.588 1.294 2.588 2.588zM5.177 57.808c0 1.294-.863 2.589-2.589 2.589C.863 60.397 0 59.102 0 57.808s1.294-2.588 2.588-2.588c1.295 0 2.589.863 2.589 2.588zm55.22 0c0 1.294-1.295 2.589-2.589 2.589s-2.588-1.295-2.588-2.589 1.294-2.588 2.588-2.588 2.589.863 2.589 2.588zm55.219 0c0 1.294-1.294 2.589-2.589 2.589-1.294 0-2.588-1.295-2.588-2.589s1.294-2.588 2.588-2.588c1.295 0 2.589.863 2.589 2.588zm55.22 0c0 1.294-1.295 2.589-2.589 2.589s-2.588-1.295-2.588-2.589 1.294-2.588 2.588-2.588 2.589.863 2.589 2.588zm54.787 0c0 1.294-1.294 2.589-2.588 2.589s-2.589-1.295-2.589-2.589 1.295-2.588 2.589-2.588 2.588.863 2.588 2.588zm55.22 0c0 1.294-1.294 2.589-2.589 2.589-1.294 0-2.588-1.295-2.588-2.589s1.294-2.588 2.588-2.588c1.295 0 2.589.863 2.589 2.588zm55.22 0c0 1.294-1.295 2.589-2.589 2.589s-2.588-1.295-2.588-2.589 1.294-2.588 2.588-2.588 2.589.863 2.589 2.588zm54.788 0c0 1.294-1.295 2.589-2.589 2.589s-2.588-1.295-2.588-2.589 1.294-2.588 2.588-2.588c1.726 0 2.589.863 2.589 2.588zm55.219 0c0 1.294-1.294 2.589-2.588 2.589s-2.588-1.295-2.588-2.589 1.294-2.588 2.588-2.588 2.588.863 2.588 2.588zm55.22 0c0 1.294-1.294 2.589-2.588 2.589-1.295 0-2.589-1.295-2.589-2.589s1.294-2.588 2.589-2.588c1.294 0 2.588.863 2.588 2.588zm55.219 0c0 1.294-1.294 2.589-2.588 2.589s-2.588-1.295-2.588-2.589 1.294-2.588 2.588-2.588 2.588.863 2.588 2.588zm54.789 0c0 1.294-1.294 2.589-2.588 2.589-1.295 0-2.589-1.295-2.589-2.589s1.294-2.588 2.589-2.588c1.725 0 2.588.863 2.588 2.588zM5.177 113.028c0 1.294-1.294 2.588-2.589 2.588-1.294 0-2.588-1.294-2.588-2.588s1.294-2.589 2.588-2.589c1.295 0 2.589.863 2.589 2.589zm55.22-.001c0 1.294-1.295 2.589-2.589 2.589s-2.588-1.295-2.588-2.589 1.294-2.588 2.588-2.588c1.294-.432 2.589.863 2.589 2.588zm55.219 0c0 1.294-1.294 2.589-2.589 2.589-1.294 0-2.588-1.295-2.588-2.589s1.294-2.588 2.588-2.588c1.295-.432 2.589.863 2.589 2.588zm55.22 0c0 1.294-1.295 2.589-2.589 2.589s-2.588-1.295-2.588-2.589 1.294-2.588 2.588-2.588c1.294-.432 2.589.863 2.589 2.588zm54.787 0c0 1.294-1.294 2.589-2.588 2.589s-2.589-1.295-2.589-2.589 1.295-2.588 2.589-2.588c1.294-.432 2.588.863 2.588 2.588zm55.22.001c0 1.294-1.294 2.588-2.589 2.588-1.294 0-2.588-1.294-2.588-2.588s1.294-2.589 2.588-2.589c1.295 0 2.589.863 2.589 2.589zm55.22 0c0 1.294-1.295 2.588-2.589 2.588s-2.588-1.294-2.588-2.588 1.294-2.589 2.588-2.589 2.589.863 2.589 2.589zm54.788-.001c0 1.294-1.295 2.589-2.589 2.589s-2.588-1.295-2.588-2.589 1.294-2.588 2.588-2.588c1.726-.432 2.589.863 2.589 2.588zm55.219 0c0 1.294-1.294 2.589-2.588 2.589s-2.588-1.295-2.588-2.589 1.294-2.588 2.588-2.588c1.294-.432 2.588.863 2.588 2.588zm55.22 0c0 1.294-1.294 2.589-2.588 2.589-1.295 0-2.589-1.295-2.589-2.589s1.294-2.588 2.589-2.588c1.294-.432 2.588.863 2.588 2.588zm55.219 0c0 1.294-1.294 2.589-2.588 2.589s-2.588-1.295-2.588-2.589 1.294-2.588 2.588-2.588c1.294-.432 2.588.863 2.588 2.588zm54.789 0c0 1.294-1.294 2.589-2.588 2.589-1.295 0-2.589-1.295-2.589-2.589s1.294-2.588 2.589-2.588c1.725-.432 2.588.863 2.588 2.588zM5.177 167.816c0 1.294-1.294 2.588-2.589 2.588-1.294 0-2.588-.863-2.588-2.588 0-1.294 1.294-2.589 2.588-2.589 1.295 0 2.589 1.295 2.589 2.589zm55.22 0c0 1.294-1.295 2.588-2.589 2.588s-2.588-1.294-2.588-2.588 1.294-2.589 2.588-2.589 2.589 1.295 2.589 2.589zm55.219 0c0 1.294-1.294 2.588-2.589 2.588-1.294 0-2.588-1.294-2.588-2.588s1.294-2.589 2.588-2.589c1.295 0 2.589 1.295 2.589 2.589zm55.22 0c0 1.294-1.295 2.588-2.589 2.588s-2.588-1.294-2.588-2.588 1.294-2.589 2.588-2.589 2.589 1.295 2.589 2.589zm54.787 0c0 1.294-1.294 2.588-2.588 2.588s-2.589-1.294-2.589-2.588 1.295-2.589 2.589-2.589 2.588 1.295 2.588 2.589zm55.22 0c0 1.294-1.294 2.588-2.589 2.588-1.294 0-2.588-1.294-2.588-2.588s1.294-2.589 2.588-2.589c1.295 0 2.589 1.295 2.589 2.589zm55.22 0c0 1.294-1.295 2.588-2.589 2.588s-2.588-1.294-2.588-2.588 1.294-2.589 2.588-2.589 2.589 1.295 2.589 2.589zm54.788 0c0 1.294-1.295 2.588-2.589 2.588s-2.588-1.294-2.588-2.588 1.294-2.589 2.588-2.589c1.726 0 2.589 1.295 2.589 2.589zm55.219 0c0 1.294-1.294 2.588-2.588 2.588s-2.588-1.294-2.588-2.588 1.294-2.589 2.588-2.589 2.588 1.295 2.588 2.589zm55.22 0c0 1.294-1.294 2.588-2.588 2.588-1.295 0-2.589-1.294-2.589-2.588s1.294-2.589 2.589-2.589c1.294 0 2.588 1.295 2.588 2.589zm55.219 0c0 1.294-1.294 2.588-2.588 2.588s-2.588-1.294-2.588-2.588 1.294-2.589 2.588-2.589 2.588 1.295 2.588 2.589zm54.789 0c0 1.294-1.294 2.588-2.588 2.588-1.295 0-2.589-1.294-2.589-2.588s1.294-2.589 2.589-2.589c1.725 0 2.588 1.295 2.588 2.589zM5.177 223.035c0 1.295-1.294 2.589-2.589 2.589-1.294 0-2.588-1.294-2.588-2.589 0-1.294 1.294-2.588 2.588-2.588 1.295 0 2.589 1.294 2.589 2.588zm55.22 0c0 1.295-1.295 2.589-2.589 2.589s-2.588-1.294-2.588-2.589c0-1.294 1.294-2.588 2.588-2.588s2.589 1.294 2.589 2.588zm55.219 0c0 1.295-1.294 2.589-2.589 2.589-1.294 0-2.588-1.294-2.588-2.589 0-1.294 1.294-2.588 2.588-2.588 1.295 0 2.589 1.294 2.589 2.588zm55.22 0c0 1.295-1.295 2.589-2.589 2.589s-2.588-1.294-2.588-2.589c0-1.294 1.294-2.588 2.588-2.588s2.589 1.294 2.589 2.588zm54.787 0c0 1.295-1.294 2.589-2.588 2.589s-2.589-1.294-2.589-2.589c0-1.294 1.295-2.588 2.589-2.588s2.588 1.294 2.588 2.588zm55.22 0c0 1.295-1.294 2.589-2.589 2.589-1.294 0-2.588-1.294-2.588-2.589 0-1.294 1.294-2.588 2.588-2.588 1.295 0 2.589 1.294 2.589 2.588zm55.22 0c0 1.295-1.295 2.589-2.589 2.589s-2.588-1.294-2.588-2.589c0-1.294 1.294-2.588 2.588-2.588s2.589 1.294 2.589 2.588zm54.788 0c0 1.295-1.295 2.589-2.589 2.589s-2.588-1.294-2.588-2.589c0-1.294 1.294-2.588 2.588-2.588 1.726 0 2.589 1.294 2.589 2.588zm55.219 0c0 1.295-1.294 2.589-2.588 2.589s-2.588-1.294-2.588-2.589c0-1.294 1.294-2.588 2.588-2.588s2.588 1.294 2.588 2.588zm55.22 0c0 1.295-1.294 2.589-2.588 2.589-1.295 0-2.589-1.294-2.589-2.589 0-1.294 1.294-2.588 2.589-2.588 1.294 0 2.588 1.294 2.588 2.588zm55.219 0c0 1.295-1.294 2.589-2.588 2.589s-2.588-1.294-2.588-2.589c0-1.294 1.294-2.588 2.588-2.588s2.588 1.294 2.588 2.588zm54.789 0c0 1.295-1.294 2.589-2.588 2.589-1.295 0-2.589-1.294-2.589-2.589 0-1.294 1.294-2.588 2.589-2.588 1.725 0 2.588 1.294 2.588 2.588zM5.177 278.254c0 1.295-1.294 2.589-2.589 2.589-1.294 0-2.588-1.294-2.588-2.589 0-1.294 1.294-2.588 2.588-2.588 1.295 0 2.589.863 2.589 2.588zm55.22 0c0 1.295-1.295 2.589-2.589 2.589s-2.588-1.294-2.588-2.589c0-1.294 1.294-2.588 2.588-2.588s2.589.863 2.589 2.588zm55.219 0c0 1.295-1.294 2.589-2.589 2.589-1.294 0-2.588-1.294-2.588-2.589 0-1.294 1.294-2.588 2.588-2.588 1.295 0 2.589.863 2.589 2.588zm55.22 0c0 1.295-1.295 2.589-2.589 2.589s-2.588-1.294-2.588-2.589c0-1.294 1.294-2.588 2.588-2.588s2.589.863 2.589 2.588zm54.787 0c0 1.295-1.294 2.589-2.588 2.589s-2.589-1.294-2.589-2.589c0-1.294 1.295-2.588 2.589-2.588s2.588.863 2.588 2.588zm55.22 0c0 1.295-1.294 2.589-2.589 2.589-1.294 0-2.588-1.294-2.588-2.589 0-1.294 1.294-2.588 2.588-2.588 1.295 0 2.589.863 2.589 2.588zm55.22 0c0 1.295-1.295 2.589-2.589 2.589s-2.588-1.294-2.588-2.589c0-1.294 1.294-2.588 2.588-2.588s2.589.863 2.589 2.588zm54.788 0c0 1.295-1.295 2.589-2.589 2.589s-2.588-1.294-2.588-2.589c0-1.294 1.294-2.588 2.588-2.588 1.726 0 2.589.863 2.589 2.588zm55.219 0c0 1.295-1.294 2.589-2.588 2.589s-2.588-1.294-2.588-2.589c0-1.294 1.294-2.588 2.588-2.588s2.588.863 2.588 2.588zm55.22 0c0 1.295-1.294 2.589-2.588 2.589-1.295 0-2.589-1.294-2.589-2.589 0-1.294 1.294-2.588 2.589-2.588 1.294 0 2.588.863 2.588 2.588zm55.219 0c0 1.295-1.294 2.589-2.588 2.589s-2.588-1.294-2.588-2.589c0-1.294 1.294-2.588 2.588-2.588s2.588.863 2.588 2.588zm54.789 0c0 1.295-1.294 2.589-2.588 2.589-1.295 0-2.589-1.294-2.589-2.589 0-1.294 1.294-2.588 2.589-2.588 1.725 0 2.588.863 2.588 2.588zM5.177 333.474c0 1.294-1.294 2.589-2.589 2.589-1.294 0-2.588-1.295-2.588-2.589s1.294-2.588 2.588-2.588c1.295 0 2.589.863 2.589 2.588zm55.22 0c0 1.294-1.295 2.589-2.589 2.589s-2.588-1.295-2.588-2.589 1.294-2.588 2.588-2.588c1.294-.432 2.589.863 2.589 2.588zm55.219 0c0 1.294-1.294 2.589-2.589 2.589-1.294 0-2.588-1.295-2.588-2.589s1.294-2.588 2.588-2.588c1.295-.432 2.589.863 2.589 2.588zm55.22 0c0 1.294-1.295 2.589-2.589 2.589s-2.588-1.295-2.588-2.589 1.294-2.588 2.588-2.588c1.294-.432 2.589.863 2.589 2.588zm54.787 0c0 1.294-1.294 2.589-2.588 2.589s-2.589-1.295-2.589-2.589 1.295-2.588 2.589-2.588c1.294-.432 2.588.863 2.588 2.588zm55.22 0c0 1.294-1.294 2.589-2.589 2.589-1.294 0-2.588-1.295-2.588-2.589s1.294-2.588 2.588-2.588c1.295 0 2.589.863 2.589 2.588zm55.22 0c0 1.294-1.295 2.589-2.589 2.589s-2.588-1.295-2.588-2.589 1.294-2.588 2.588-2.588 2.589.863 2.589 2.588zm54.788 0c0 1.294-1.295 2.589-2.589 2.589s-2.588-1.295-2.588-2.589 1.294-2.588 2.588-2.588c1.726-.432 2.589.863 2.589 2.588zm55.219 0c0 1.294-1.294 2.589-2.588 2.589s-2.588-1.295-2.588-2.589 1.294-2.588 2.588-2.588c1.294-.432 2.588.863 2.588 2.588zm55.22 0c0 1.294-1.294 2.589-2.588 2.589-1.295 0-2.589-1.295-2.589-2.589s1.294-2.588 2.589-2.588c1.294-.432 2.588.863 2.588 2.588zm55.219 0c0 1.294-1.294 2.589-2.588 2.589s-2.588-1.295-2.588-2.589 1.294-2.588 2.588-2.588c1.294-.432 2.588.863 2.588 2.588zm54.789 0c0 1.294-1.294 2.589-2.588 2.589-1.295 0-2.589-1.295-2.589-2.589s1.294-2.588 2.589-2.588c1.725-.432 2.588.863 2.588 2.588zM5.177 388.262c0 1.294-1.294 2.588-2.589 2.588-1.294 0-2.588-.862-2.588-2.588 0-1.294 1.294-2.588 2.588-2.588 1.295 0 2.589 1.294 2.589 2.588zm55.22 0c0 1.294-1.295 2.588-2.589 2.588s-2.588-1.294-2.588-2.588 1.294-2.588 2.588-2.588 2.589 1.294 2.589 2.588zm55.219 0c0 1.294-1.294 2.588-2.589 2.588-1.294 0-2.588-1.294-2.588-2.588s1.294-2.588 2.588-2.588c1.295 0 2.589 1.294 2.589 2.588zm55.22 0c0 1.294-1.295 2.588-2.589 2.588s-2.588-1.294-2.588-2.588 1.294-2.588 2.588-2.588 2.589 1.294 2.589 2.588zm54.787 0c0 1.294-1.294 2.588-2.588 2.588s-2.589-1.294-2.589-2.588 1.295-2.588 2.589-2.588 2.588 1.294 2.588 2.588zm55.22 0c0 1.294-1.294 2.588-2.589 2.588-1.294 0-2.588-1.294-2.588-2.588s1.294-2.588 2.588-2.588c1.295 0 2.589 1.294 2.589 2.588zm55.22 0c0 1.294-1.295 2.588-2.589 2.588s-2.588-1.294-2.588-2.588 1.294-2.588 2.588-2.588 2.589 1.294 2.589 2.588zm54.788 0c0 1.294-1.295 2.588-2.589 2.588s-2.588-1.294-2.588-2.588 1.294-2.588 2.588-2.588c1.726 0 2.589 1.294 2.589 2.588zm55.219 0c0 1.294-1.294 2.588-2.588 2.588s-2.588-1.294-2.588-2.588 1.294-2.588 2.588-2.588 2.588 1.294 2.588 2.588zm55.22 0c0 1.294-1.294 2.588-2.588 2.588-1.295 0-2.589-1.294-2.589-2.588s1.294-2.588 2.589-2.588c1.294 0 2.588 1.294 2.588 2.588zm55.219 0c0 1.294-1.294 2.588-2.588 2.588s-2.588-1.294-2.588-2.588 1.294-2.588 2.588-2.588 2.588 1.294 2.588 2.588zm54.789 0c0 1.294-1.294 2.588-2.588 2.588-1.295 0-2.589-1.294-2.589-2.588s1.294-2.588 2.589-2.588c1.725 0 2.588 1.294 2.588 2.588zM5.177 443.482c0 1.294-1.294 2.588-2.589 2.588-1.294 0-2.588-1.294-2.588-2.588s1.294-2.589 2.588-2.589c1.295 0 2.589 1.295 2.589 2.589zm55.22 0c0 1.294-1.295 2.588-2.589 2.588s-2.588-1.294-2.588-2.588 1.294-2.589 2.588-2.589 2.589 1.295 2.589 2.589zm55.219 0c0 1.294-1.294 2.588-2.589 2.588-1.294 0-2.588-1.294-2.588-2.588s1.294-2.589 2.588-2.589c1.295 0 2.589 1.295 2.589 2.589zm55.22 0c0 1.294-1.295 2.588-2.589 2.588s-2.588-1.294-2.588-2.588 1.294-2.589 2.588-2.589 2.589 1.295 2.589 2.589zm54.787 0c0 1.294-1.294 2.588-2.588 2.588s-2.589-1.294-2.589-2.588 1.295-2.589 2.589-2.589 2.588 1.295 2.588 2.589zm55.22 0c0 1.294-1.294 2.588-2.589 2.588-1.294 0-2.588-1.294-2.588-2.588s1.294-2.589 2.588-2.589c1.295 0 2.589 1.295 2.589 2.589zm55.22 0c0 1.294-1.295 2.588-2.589 2.588s-2.588-1.294-2.588-2.588 1.294-2.589 2.588-2.589 2.589 1.295 2.589 2.589zm54.788 0c0 1.294-1.295 2.588-2.589 2.588s-2.588-1.294-2.588-2.588 1.294-2.589 2.588-2.589c1.726 0 2.589 1.295 2.589 2.589zm55.219 0c0 1.294-1.294 2.588-2.588 2.588s-2.588-1.294-2.588-2.588 1.294-2.589 2.588-2.589 2.588 1.295 2.588 2.589zm55.22 0c0 1.294-1.294 2.588-2.588 2.588-1.295 0-2.589-1.294-2.589-2.588s1.294-2.589 2.589-2.589c1.294 0 2.588 1.295 2.588 2.589zm55.219 0c0 1.294-1.294 2.588-2.588 2.588s-2.588-1.294-2.588-2.588 1.294-2.589 2.588-2.589 2.588 1.295 2.588 2.589zm54.789 0c0 1.294-1.294 2.588-2.588 2.588-1.295 0-2.589-1.294-2.589-2.588s1.294-2.589 2.589-2.589c1.725 0 2.588 1.295 2.588 2.589zM5.177 498.701c0 1.295-1.294 2.589-2.589 2.589-1.294 0-2.588-1.294-2.588-2.589 0-1.294 1.294-2.588 2.588-2.588 1.295 0 2.589.863 2.589 2.588zm55.22 0c0 1.295-1.295 2.589-2.589 2.589s-2.588-1.294-2.588-2.589c0-1.294 1.294-2.588 2.588-2.588s2.589.863 2.589 2.588zm55.219 0c0 1.295-1.294 2.589-2.589 2.589-1.294 0-2.588-1.294-2.588-2.589 0-1.294 1.294-2.588 2.588-2.588 1.295 0 2.589.863 2.589 2.588zm55.22 0c0 1.295-1.295 2.589-2.589 2.589s-2.588-1.294-2.588-2.589c0-1.294 1.294-2.588 2.588-2.588s2.589.863 2.589 2.588zm54.787 0c0 1.295-1.294 2.589-2.588 2.589s-2.589-1.294-2.589-2.589c0-1.294 1.295-2.588 2.589-2.588s2.588.863 2.588 2.588zm55.22 0c0 1.295-1.294 2.589-2.589 2.589-1.294 0-2.588-1.294-2.588-2.589 0-1.294 1.294-2.588 2.588-2.588 1.295 0 2.589.863 2.589 2.588zm55.22 0c0 1.295-1.295 2.589-2.589 2.589s-2.588-1.294-2.588-2.589c0-1.294 1.294-2.588 2.588-2.588s2.589.863 2.589 2.588zm54.788 0c0 1.295-1.295 2.589-2.589 2.589s-2.588-1.294-2.588-2.589c0-1.294 1.294-2.588 2.588-2.588 1.726 0 2.589.863 2.589 2.588zm55.219 0c0 1.295-1.294 2.589-2.588 2.589s-2.588-1.294-2.588-2.589c0-1.294 1.294-2.588 2.588-2.588s2.588.863 2.588 2.588zm55.22 0c0 1.295-1.294 2.589-2.588 2.589-1.295 0-2.589-1.294-2.589-2.589 0-1.294 1.294-2.588 2.589-2.588 1.294 0 2.588.863 2.588 2.588zm55.219 0c0 1.295-1.294 2.589-2.588 2.589s-2.588-1.294-2.588-2.589c0-1.294 1.294-2.588 2.588-2.588s2.588.863 2.588 2.588zm54.789 0c0 1.295-1.294 2.589-2.588 2.589-1.295 0-2.589-1.294-2.589-2.589 0-1.294 1.294-2.588 2.589-2.588 1.725 0 2.588.863 2.588 2.588zM5.177 553.49c0 1.294-1.294 2.588-2.589 2.588-1.294 0-2.588-.863-2.588-2.588 0-1.295 1.294-2.589 2.588-2.589 1.295 0 2.589 1.294 2.589 2.589zm55.22 0c0 1.294-1.295 2.588-2.589 2.588s-2.588-1.294-2.588-2.588c0-1.295 1.294-2.589 2.588-2.589s2.589 1.294 2.589 2.589zm55.219 0c0 1.294-1.294 2.588-2.589 2.588-1.294 0-2.588-1.294-2.588-2.588 0-1.295 1.294-2.589 2.588-2.589 1.295 0 2.589 1.294 2.589 2.589zm55.22 0c0 1.294-1.295 2.588-2.589 2.588s-2.588-1.294-2.588-2.588c0-1.295 1.294-2.589 2.588-2.589s2.589 1.294 2.589 2.589zm54.787 0c0 1.294-1.294 2.588-2.588 2.588s-2.589-1.294-2.589-2.588c0-1.295 1.295-2.589 2.589-2.589s2.588 1.294 2.588 2.589zm55.22 0c0 1.294-1.294 2.588-2.589 2.588-1.294 0-2.588-1.294-2.588-2.588 0-1.295 1.294-2.589 2.588-2.589 1.295 0 2.589 1.294 2.589 2.589zm55.22 0c0 1.294-1.295 2.588-2.589 2.588s-2.588-1.294-2.588-2.588c0-1.295 1.294-2.589 2.588-2.589s2.589 1.294 2.589 2.589zm54.788 0c0 1.294-1.295 2.588-2.589 2.588s-2.588-1.294-2.588-2.588c0-1.295 1.294-2.589 2.588-2.589 1.726 0 2.589 1.294 2.589 2.589zm55.219 0c0 1.294-1.294 2.588-2.588 2.588s-2.588-1.294-2.588-2.588c0-1.295 1.294-2.589 2.588-2.589s2.588 1.294 2.588 2.589zm55.22 0c0 1.294-1.294 2.588-2.588 2.588-1.295 0-2.589-1.294-2.589-2.588 0-1.295 1.294-2.589 2.589-2.589 1.294 0 2.588 1.294 2.588 2.589zm55.219 0c0 1.294-1.294 2.588-2.588 2.588s-2.588-1.294-2.588-2.588c0-1.295 1.294-2.589 2.588-2.589s2.588 1.294 2.588 2.589zm54.789 0c0 1.294-1.294 2.588-2.588 2.588-1.295 0-2.589-1.294-2.589-2.588 0-1.295 1.294-2.589 2.589-2.589 1.725 0 2.588 1.294 2.588 2.589zM5.177 608.709c0 1.294-1.294 2.588-2.589 2.588-1.294 0-2.588-.862-2.588-2.588 0-1.294 1.294-2.588 2.588-2.588 1.295 0 2.589 1.294 2.589 2.588zm55.22 0c0 1.294-1.295 2.588-2.589 2.588s-2.588-1.294-2.588-2.588 1.294-2.588 2.588-2.588 2.589 1.294 2.589 2.588zm55.219 0c0 1.294-1.294 2.588-2.589 2.588-1.294 0-2.588-1.294-2.588-2.588s1.294-2.588 2.588-2.588c1.295 0 2.589 1.294 2.589 2.588zm55.22 0c0 1.294-1.295 2.588-2.589 2.588s-2.588-1.294-2.588-2.588 1.294-2.588 2.588-2.588 2.589 1.294 2.589 2.588zm54.787 0c0 1.294-1.294 2.588-2.588 2.588s-2.589-1.294-2.589-2.588 1.295-2.588 2.589-2.588 2.588 1.294 2.588 2.588zm55.22 0c0 1.294-1.294 2.588-2.589 2.588-1.294 0-2.588-1.294-2.588-2.588s1.294-2.588 2.588-2.588c1.295 0 2.589 1.294 2.589 2.588zm55.22 0c0 1.294-1.295 2.588-2.589 2.588s-2.588-1.294-2.588-2.588 1.294-2.588 2.588-2.588 2.589 1.294 2.589 2.588zm54.788 0c0 1.294-1.295 2.588-2.589 2.588s-2.588-1.294-2.588-2.588 1.294-2.588 2.588-2.588c1.726 0 2.589 1.294 2.589 2.588zm55.219 0c0 1.294-1.294 2.588-2.588 2.588s-2.588-1.294-2.588-2.588 1.294-2.588 2.588-2.588 2.588 1.294 2.588 2.588zm55.22 0c0 1.294-1.294 2.588-2.588 2.588-1.295 0-2.589-1.294-2.589-2.588s1.294-2.588 2.589-2.588c1.294 0 2.588 1.294 2.588 2.588zm55.219 0c0 1.294-1.294 2.588-2.588 2.588s-2.588-1.294-2.588-2.588 1.294-2.588 2.588-2.588 2.588 1.294 2.588 2.588zm54.789 0c0 1.294-1.294 2.588-2.588 2.588-1.295 0-2.589-1.294-2.589-2.588s1.294-2.588 2.589-2.588c1.725 0 2.588 1.294 2.588 2.588zM654.036 2.588c0 1.726-.769 2.589-2.306 2.589s-2.306-.863-2.306-2.589c0-1.294 1.153-2.588 2.306-2.588s2.306 1.294 2.306 2.588zm49.193 0c0 1.295-1.153 2.589-2.306 2.589s-2.306-1.294-2.306-2.589c0-1.294.769-2.588 2.306-2.588 1.153 0 2.306 1.294 2.306 2.588zm49.192 0c0 1.295-1.153 2.589-2.306 2.589s-2.306-1.294-2.306-2.589c0-1.294 1.153-2.588 2.306-2.588s2.306 1.294 2.306 2.588zm49.193 0c0 1.295-1.153 2.589-2.306 2.589s-2.306-1.294-2.306-2.589c0-1.294 1.153-2.588 2.306-2.588s2.306 1.294 2.306 2.588zm48.808 0c0 1.295-1.153 2.589-2.306 2.589s-2.306-1.294-2.306-2.589c0-1.294 1.153-2.588 2.306-2.588s2.306 1.294 2.306 2.588zm49.193 0c0 1.295-1.153 2.589-2.306 2.589s-2.306-.863-2.306-2.589c0-1.294 1.153-2.588 2.306-2.588s2.306 1.294 2.306 2.588zm49.192 0c0 1.295-1.153 2.589-2.306 2.589s-2.69-.863-2.69-2.589c0-1.294 1.152-2.588 2.305-2.588 1.153 0 2.691 1.294 2.691 2.588zm48.808 0c0 1.295-1.153 2.589-2.306 2.589s-2.306-1.294-2.306-2.589c0-1.294 1.153-2.588 2.306-2.588 1.538 0 2.306 1.294 2.306 2.588zm49.195 0c0 1.295-1.16 2.589-2.31 2.589-1.15 0-2.3-1.294-2.3-2.589 0-1.294 1.15-2.588 2.3-2.588s2.31 1.294 2.31 2.588zm49.19 0c0 1.295-1.15 2.589-2.31 2.589-1.15 0-2.3-1.294-2.3-2.589 0-1.294 1.15-2.588 2.3-2.588 1.16 0 2.31 1.294 2.31 2.588zm49.19 0c0 1.295-1.15 2.589-2.3 2.589-1.16 0-2.31-1.294-2.31-2.589 0-1.294 1.15-2.588 2.31-2.588 1.15 0 2.3 1.294 2.3 2.588zm48.81 0c0 1.295-1.15 2.589-2.31 2.589-1.15 0-2.3-1.294-2.3-2.589 0-1.294 1.15-2.588 2.3-2.588 1.54 0 2.31 1.294 2.31 2.588zm-539.963 55.22c0 1.294-.769 2.589-2.306 2.589-1.538 0-2.306-1.295-2.306-2.589s1.153-2.588 2.306-2.588 2.306.863 2.306 2.588zm49.192 0c0 1.294-1.153 2.589-2.306 2.589s-2.306-1.295-2.306-2.589 1.153-2.588 2.306-2.588 2.306.863 2.306 2.588zm49.192 0c0 1.294-1.153 2.589-2.306 2.589s-2.306-1.295-2.306-2.589 1.153-2.588 2.306-2.588 2.306.863 2.306 2.588zm49.193 0c0 1.294-1.153 2.589-2.306 2.589s-2.306-1.295-2.306-2.589 1.153-2.588 2.306-2.588 2.306.863 2.306 2.588zm48.808 0c0 1.294-1.153 2.589-2.306 2.589s-2.306-1.295-2.306-2.589 1.153-2.588 2.306-2.588 2.306.863 2.306 2.588zm49.193 0c0 1.294-1.153 2.589-2.306 2.589s-2.306-1.295-2.306-2.589 1.153-2.588 2.306-2.588 2.306.863 2.306 2.588zm49.192 0c0 1.294-1.153 2.589-2.306 2.589s-2.306-1.295-2.306-2.589 1.153-2.588 2.306-2.588 2.306.863 2.306 2.588zm48.808 0c0 1.294-1.153 2.589-2.306 2.589s-2.306-1.295-2.306-2.589 1.153-2.588 2.306-2.588c1.538 0 2.306.863 2.306 2.588zm49.195 0c0 1.294-1.16 2.589-2.31 2.589-1.15 0-2.3-1.295-2.3-2.589s1.15-2.588 2.3-2.588 2.31.863 2.31 2.588zm49.19 0c0 1.294-1.15 2.589-2.31 2.589-1.15 0-2.3-1.295-2.3-2.589s1.15-2.588 2.3-2.588c1.16 0 2.31.863 2.31 2.588zm49.19 0c0 1.294-1.15 2.589-2.3 2.589-1.16 0-2.31-1.295-2.31-2.589s1.15-2.588 2.31-2.588c1.15 0 2.3.863 2.3 2.588zm48.81 0c0 1.294-1.15 2.589-2.31 2.589-1.15 0-2.3-1.295-2.3-2.589s1.15-2.588 2.3-2.588c1.54 0 2.31.863 2.31 2.588zm-539.963 55.22c0 1.294-1.153 2.588-2.306 2.588s-2.306-1.294-2.306-2.588 1.153-2.589 2.306-2.589 2.306.863 2.306 2.589zm49.192-.001c0 1.294-1.153 2.589-2.306 2.589s-2.306-1.295-2.306-2.589 1.153-2.588 2.306-2.588c1.153-.432 2.306.863 2.306 2.588zm49.192 0c0 1.294-1.153 2.589-2.306 2.589s-2.306-1.295-2.306-2.589 1.153-2.588 2.306-2.588c1.153-.432 2.306.863 2.306 2.588zm49.193 0c0 1.294-1.153 2.589-2.306 2.589s-2.306-1.295-2.306-2.589 1.153-2.588 2.306-2.588c1.153-.432 2.306.863 2.306 2.588zm48.808 0c0 1.294-1.153 2.589-2.306 2.589s-2.306-1.295-2.306-2.589 1.153-2.588 2.306-2.588c1.153-.432 2.306.863 2.306 2.588zm49.193.001c0 1.294-1.153 2.588-2.306 2.588s-2.306-1.294-2.306-2.588 1.153-2.589 2.306-2.589 2.306.863 2.306 2.589zm49.192 0c0 1.294-1.153 2.588-2.306 2.588s-2.306-1.294-2.306-2.588 1.153-2.589 2.306-2.589 2.306.863 2.306 2.589zm48.808-.001c0 1.294-1.153 2.589-2.306 2.589s-2.306-1.295-2.306-2.589 1.153-2.588 2.306-2.588c1.538-.432 2.306.863 2.306 2.588zm49.195 0c0 1.294-1.16 2.589-2.31 2.589-1.15 0-2.3-1.295-2.3-2.589s1.15-2.588 2.3-2.588c1.15-.432 2.31.863 2.31 2.588zm49.19 0c0 1.294-1.15 2.589-2.31 2.589-1.15 0-2.3-1.295-2.3-2.589s1.15-2.588 2.3-2.588c1.16-.432 2.31.863 2.31 2.588zm49.19 0c0 1.294-1.15 2.589-2.3 2.589-1.16 0-2.31-1.295-2.31-2.589s1.15-2.588 2.31-2.588c1.15-.432 2.3.863 2.3 2.588zm48.81 0c0 1.294-1.15 2.589-2.31 2.589-1.15 0-2.3-1.295-2.3-2.589s1.15-2.588 2.3-2.588c1.54-.432 2.31.863 2.31 2.588zm-539.963 54.789c0 1.294-1.153 2.588-2.306 2.588s-2.306-.863-2.306-2.588c0-1.294 1.153-2.589 2.306-2.589s2.306 1.295 2.306 2.589zm49.192 0c0 1.294-1.153 2.588-2.306 2.588s-2.306-1.294-2.306-2.588 1.153-2.589 2.306-2.589 2.306 1.295 2.306 2.589zm49.192 0c0 1.294-1.153 2.588-2.306 2.588s-2.306-1.294-2.306-2.588 1.153-2.589 2.306-2.589 2.306 1.295 2.306 2.589zm49.193 0c0 1.294-1.153 2.588-2.306 2.588s-2.306-1.294-2.306-2.588 1.153-2.589 2.306-2.589 2.306 1.295 2.306 2.589zm48.808 0c0 1.294-1.153 2.588-2.306 2.588s-2.306-1.294-2.306-2.588 1.153-2.589 2.306-2.589 2.306 1.295 2.306 2.589zm49.193 0c0 1.294-1.153 2.588-2.306 2.588s-2.306-1.294-2.306-2.588 1.153-2.589 2.306-2.589 2.306 1.295 2.306 2.589zm49.192 0c0 1.294-1.153 2.588-2.306 2.588s-2.306-1.294-2.306-2.588 1.153-2.589 2.306-2.589 2.306 1.295 2.306 2.589zm48.808 0c0 1.294-1.153 2.588-2.306 2.588s-2.306-1.294-2.306-2.588 1.153-2.589 2.306-2.589c1.538 0 2.306 1.295 2.306 2.589zm49.195 0c0 1.294-1.16 2.588-2.31 2.588-1.15 0-2.3-1.294-2.3-2.588s1.15-2.589 2.3-2.589 2.31 1.295 2.31 2.589zm49.19 0c0 1.294-1.15 2.588-2.31 2.588-1.15 0-2.3-1.294-2.3-2.588s1.15-2.589 2.3-2.589c1.16 0 2.31 1.295 2.31 2.589zm49.19 0c0 1.294-1.15 2.588-2.3 2.588-1.16 0-2.31-1.294-2.31-2.588s1.15-2.589 2.31-2.589c1.15 0 2.3 1.295 2.3 2.589zm48.81 0c0 1.294-1.15 2.588-2.31 2.588-1.15 0-2.3-1.294-2.3-2.588s1.15-2.589 2.3-2.589c1.54 0 2.31 1.295 2.31 2.589zm-539.963 55.219c0 1.295-1.153 2.589-2.306 2.589s-2.306-1.294-2.306-2.589c0-1.294 1.153-2.588 2.306-2.588s2.306 1.294 2.306 2.588zm49.192 0c0 1.295-1.153 2.589-2.306 2.589s-2.306-1.294-2.306-2.589c0-1.294 1.153-2.588 2.306-2.588s2.306 1.294 2.306 2.588zm49.192 0c0 1.295-1.153 2.589-2.306 2.589s-2.306-1.294-2.306-2.589c0-1.294 1.153-2.588 2.306-2.588s2.306 1.294 2.306 2.588zm49.193 0c0 1.295-1.153 2.589-2.306 2.589s-2.306-1.294-2.306-2.589c0-1.294 1.153-2.588 2.306-2.588s2.306 1.294 2.306 2.588zm48.808 0c0 1.295-1.153 2.589-2.306 2.589s-2.306-1.294-2.306-2.589c0-1.294 1.153-2.588 2.306-2.588s2.306 1.294 2.306 2.588zm49.193 0c0 1.295-1.153 2.589-2.306 2.589s-2.306-1.294-2.306-2.589c0-1.294 1.153-2.588 2.306-2.588s2.306 1.294 2.306 2.588zm49.192 0c0 1.295-1.153 2.589-2.306 2.589s-2.306-1.294-2.306-2.589c0-1.294 1.153-2.588 2.306-2.588s2.306 1.294 2.306 2.588zm48.808 0c0 1.295-1.153 2.589-2.306 2.589s-2.306-1.294-2.306-2.589c0-1.294 1.153-2.588 2.306-2.588 1.538 0 2.306 1.294 2.306 2.588zm49.195 0c0 1.295-1.16 2.589-2.31 2.589-1.15 0-2.3-1.294-2.3-2.589 0-1.294 1.15-2.588 2.3-2.588s2.31 1.294 2.31 2.588zm49.19 0c0 1.295-1.15 2.589-2.31 2.589-1.15 0-2.3-1.294-2.3-2.589 0-1.294 1.15-2.588 2.3-2.588 1.16 0 2.31 1.294 2.31 2.588zm49.19 0c0 1.295-1.15 2.589-2.3 2.589-1.16 0-2.31-1.294-2.31-2.589 0-1.294 1.15-2.588 2.31-2.588 1.15 0 2.3 1.294 2.3 2.588zm48.81 0c0 1.295-1.15 2.589-2.31 2.589-1.15 0-2.3-1.294-2.3-2.589 0-1.294 1.15-2.588 2.3-2.588 1.54 0 2.31 1.294 2.31 2.588zm-539.963 55.219c0 1.295-1.153 2.589-2.306 2.589s-2.306-1.294-2.306-2.589c0-1.294 1.153-2.588 2.306-2.588s2.306.863 2.306 2.588zm49.192 0c0 1.295-1.153 2.589-2.306 2.589s-2.306-1.294-2.306-2.589c0-1.294 1.153-2.588 2.306-2.588s2.306.863 2.306 2.588zm49.192 0c0 1.295-1.153 2.589-2.306 2.589s-2.306-1.294-2.306-2.589c0-1.294 1.153-2.588 2.306-2.588s2.306.863 2.306 2.588zm49.193 0c0 1.295-1.153 2.589-2.306 2.589s-2.306-1.294-2.306-2.589c0-1.294 1.153-2.588 2.306-2.588s2.306.863 2.306 2.588zm48.808 0c0 1.295-1.153 2.589-2.306 2.589s-2.306-1.294-2.306-2.589c0-1.294 1.153-2.588 2.306-2.588s2.306.863 2.306 2.588zm49.193 0c0 1.295-1.153 2.589-2.306 2.589s-2.306-1.294-2.306-2.589c0-1.294 1.153-2.588 2.306-2.588s2.306.863 2.306 2.588zm49.192 0c0 1.295-1.153 2.589-2.306 2.589s-2.306-1.294-2.306-2.589c0-1.294 1.153-2.588 2.306-2.588s2.306.863 2.306 2.588zm48.808 0c0 1.295-1.153 2.589-2.306 2.589s-2.306-1.294-2.306-2.589c0-1.294 1.153-2.588 2.306-2.588 1.538 0 2.306.863 2.306 2.588zm49.195 0c0 1.295-1.16 2.589-2.31 2.589-1.15 0-2.3-1.294-2.3-2.589 0-1.294 1.15-2.588 2.3-2.588s2.31.863 2.31 2.588zm49.19 0c0 1.295-1.15 2.589-2.31 2.589-1.15 0-2.3-1.294-2.3-2.589 0-1.294 1.15-2.588 2.3-2.588 1.16 0 2.31.863 2.31 2.588zm49.19 0c0 1.295-1.15 2.589-2.3 2.589-1.16 0-2.31-1.294-2.31-2.589 0-1.294 1.15-2.588 2.31-2.588 1.15 0 2.3.863 2.3 2.588zm48.81 0c0 1.295-1.15 2.589-2.31 2.589-1.15 0-2.3-1.294-2.3-2.589 0-1.294 1.15-2.588 2.3-2.588 1.54 0 2.31.863 2.31 2.588zm-539.963 55.22c0 1.294-1.153 2.589-2.306 2.589s-2.306-1.295-2.306-2.589 1.153-2.588 2.306-2.588 2.306.863 2.306 2.588zm49.192 0c0 1.294-1.153 2.589-2.306 2.589s-2.306-1.295-2.306-2.589 1.153-2.588 2.306-2.588c1.153-.432 2.306.863 2.306 2.588zm49.192 0c0 1.294-1.153 2.589-2.306 2.589s-2.306-1.295-2.306-2.589 1.153-2.588 2.306-2.588c1.153-.432 2.306.863 2.306 2.588zm49.193 0c0 1.294-1.153 2.589-2.306 2.589s-2.306-1.295-2.306-2.589 1.153-2.588 2.306-2.588c1.153-.432 2.306.863 2.306 2.588zm48.808 0c0 1.294-1.153 2.589-2.306 2.589s-2.306-1.295-2.306-2.589 1.153-2.588 2.306-2.588c1.153-.432 2.306.863 2.306 2.588zm49.193 0c0 1.294-1.153 2.589-2.306 2.589s-2.306-1.295-2.306-2.589 1.153-2.588 2.306-2.588 2.306.863 2.306 2.588zm49.192 0c0 1.294-1.153 2.589-2.306 2.589s-2.306-1.295-2.306-2.589 1.153-2.588 2.306-2.588 2.306.863 2.306 2.588zm48.808 0c0 1.294-1.153 2.589-2.306 2.589s-2.306-1.295-2.306-2.589 1.153-2.588 2.306-2.588c1.538-.432 2.306.863 2.306 2.588zm49.195 0c0 1.294-1.16 2.589-2.31 2.589-1.15 0-2.3-1.295-2.3-2.589s1.15-2.588 2.3-2.588c1.15-.432 2.31.863 2.31 2.588zm49.19 0c0 1.294-1.15 2.589-2.31 2.589-1.15 0-2.3-1.295-2.3-2.589s1.15-2.588 2.3-2.588c1.16-.432 2.31.863 2.31 2.588zm49.19 0c0 1.294-1.15 2.589-2.3 2.589-1.16 0-2.31-1.295-2.31-2.589s1.15-2.588 2.31-2.588c1.15-.432 2.3.863 2.3 2.588zm48.81 0c0 1.294-1.15 2.589-2.31 2.589-1.15 0-2.3-1.295-2.3-2.589s1.15-2.588 2.3-2.588c1.54-.432 2.31.863 2.31 2.588zm-539.963 54.788c0 1.294-1.153 2.588-2.306 2.588s-2.306-.862-2.306-2.588c0-1.294 1.153-2.588 2.306-2.588s2.306 1.294 2.306 2.588zm49.192 0c0 1.294-1.153 2.588-2.306 2.588s-2.306-1.294-2.306-2.588 1.153-2.588 2.306-2.588 2.306 1.294 2.306 2.588zm49.192 0c0 1.294-1.153 2.588-2.306 2.588s-2.306-1.294-2.306-2.588 1.153-2.588 2.306-2.588 2.306 1.294 2.306 2.588zm49.193 0c0 1.294-1.153 2.588-2.306 2.588s-2.306-1.294-2.306-2.588 1.153-2.588 2.306-2.588 2.306 1.294 2.306 2.588zm48.808 0c0 1.294-1.153 2.588-2.306 2.588s-2.306-1.294-2.306-2.588 1.153-2.588 2.306-2.588 2.306 1.294 2.306 2.588zm49.193 0c0 1.294-1.153 2.588-2.306 2.588s-2.306-1.294-2.306-2.588 1.153-2.588 2.306-2.588 2.306 1.294 2.306 2.588zm49.192 0c0 1.294-1.153 2.588-2.306 2.588s-2.306-1.294-2.306-2.588 1.153-2.588 2.306-2.588 2.306 1.294 2.306 2.588zm48.808 0c0 1.294-1.153 2.588-2.306 2.588s-2.306-1.294-2.306-2.588 1.153-2.588 2.306-2.588c1.538 0 2.306 1.294 2.306 2.588zm49.195 0c0 1.294-1.16 2.588-2.31 2.588-1.15 0-2.3-1.294-2.3-2.588s1.15-2.588 2.3-2.588 2.31 1.294 2.31 2.588zm49.19 0c0 1.294-1.15 2.588-2.31 2.588-1.15 0-2.3-1.294-2.3-2.588s1.15-2.588 2.3-2.588c1.16 0 2.31 1.294 2.31 2.588zm49.19 0c0 1.294-1.15 2.588-2.3 2.588-1.16 0-2.31-1.294-2.31-2.588s1.15-2.588 2.31-2.588c1.15 0 2.3 1.294 2.3 2.588zm48.81 0c0 1.294-1.15 2.588-2.31 2.588-1.15 0-2.3-1.294-2.3-2.588s1.15-2.588 2.3-2.588c1.54 0 2.31 1.294 2.31 2.588zm-539.963 55.22c0 1.294-1.153 2.588-2.306 2.588s-2.306-1.294-2.306-2.588 1.153-2.589 2.306-2.589 2.306 1.295 2.306 2.589zm49.192 0c0 1.294-1.153 2.588-2.306 2.588s-2.306-1.294-2.306-2.588 1.153-2.589 2.306-2.589 2.306 1.295 2.306 2.589zm49.192 0c0 1.294-1.153 2.588-2.306 2.588s-2.306-1.294-2.306-2.588 1.153-2.589 2.306-2.589 2.306 1.295 2.306 2.589zm49.193 0c0 1.294-1.153 2.588-2.306 2.588s-2.306-1.294-2.306-2.588 1.153-2.589 2.306-2.589 2.306 1.295 2.306 2.589zm48.808 0c0 1.294-1.153 2.588-2.306 2.588s-2.306-1.294-2.306-2.588 1.153-2.589 2.306-2.589 2.306 1.295 2.306 2.589zm49.193 0c0 1.294-1.153 2.588-2.306 2.588s-2.306-1.294-2.306-2.588 1.153-2.589 2.306-2.589 2.306 1.295 2.306 2.589zm49.192 0c0 1.294-1.153 2.588-2.306 2.588s-2.306-1.294-2.306-2.588 1.153-2.589 2.306-2.589 2.306 1.295 2.306 2.589zm48.808 0c0 1.294-1.153 2.588-2.306 2.588s-2.306-1.294-2.306-2.588 1.153-2.589 2.306-2.589c1.538 0 2.306 1.295 2.306 2.589zm49.195 0c0 1.294-1.16 2.588-2.31 2.588-1.15 0-2.3-1.294-2.3-2.588s1.15-2.589 2.3-2.589 2.31 1.295 2.31 2.589zm49.19 0c0 1.294-1.15 2.588-2.31 2.588-1.15 0-2.3-1.294-2.3-2.588s1.15-2.589 2.3-2.589c1.16 0 2.31 1.295 2.31 2.589zm49.19 0c0 1.294-1.15 2.588-2.3 2.588-1.16 0-2.31-1.294-2.31-2.588s1.15-2.589 2.31-2.589c1.15 0 2.3 1.295 2.3 2.589zm48.81 0c0 1.294-1.15 2.588-2.31 2.588-1.15 0-2.3-1.294-2.3-2.588s1.15-2.589 2.3-2.589c1.54 0 2.31 1.295 2.31 2.589zm-539.963 55.219c0 1.295-1.153 2.589-2.306 2.589s-2.306-1.294-2.306-2.589c0-1.294 1.153-2.588 2.306-2.588s2.306.863 2.306 2.588zm49.192 0c0 1.295-1.153 2.589-2.306 2.589s-2.306-1.294-2.306-2.589c0-1.294 1.153-2.588 2.306-2.588s2.306.863 2.306 2.588zm49.192 0c0 1.295-1.153 2.589-2.306 2.589s-2.306-1.294-2.306-2.589c0-1.294 1.153-2.588 2.306-2.588s2.306.863 2.306 2.588zm49.193 0c0 1.295-1.153 2.589-2.306 2.589s-2.306-1.294-2.306-2.589c0-1.294 1.153-2.588 2.306-2.588s2.306.863 2.306 2.588zm48.808 0c0 1.295-1.153 2.589-2.306 2.589s-2.306-1.294-2.306-2.589c0-1.294 1.153-2.588 2.306-2.588s2.306.863 2.306 2.588zm49.193 0c0 1.295-1.153 2.589-2.306 2.589s-2.306-1.294-2.306-2.589c0-1.294 1.153-2.588 2.306-2.588s2.306.863 2.306 2.588zm49.192 0c0 1.295-1.153 2.589-2.306 2.589s-2.306-1.294-2.306-2.589c0-1.294 1.153-2.588 2.306-2.588s2.306.863 2.306 2.588zm48.808 0c0 1.295-1.153 2.589-2.306 2.589s-2.306-1.294-2.306-2.589c0-1.294 1.153-2.588 2.306-2.588 1.538 0 2.306.863 2.306 2.588zm49.195 0c0 1.295-1.16 2.589-2.31 2.589-1.15 0-2.3-1.294-2.3-2.589 0-1.294 1.15-2.588 2.3-2.588s2.31.863 2.31 2.588zm49.19 0c0 1.295-1.15 2.589-2.31 2.589-1.15 0-2.3-1.294-2.3-2.589 0-1.294 1.15-2.588 2.3-2.588 1.16 0 2.31.863 2.31 2.588zm49.19 0c0 1.295-1.15 2.589-2.3 2.589-1.16 0-2.31-1.294-2.31-2.589 0-1.294 1.15-2.588 2.31-2.588 1.15 0 2.3.863 2.3 2.588zm48.81 0c0 1.295-1.15 2.589-2.31 2.589-1.15 0-2.3-1.294-2.3-2.589 0-1.294 1.15-2.588 2.3-2.588 1.54 0 2.31.863 2.31 2.588zM654.037 553.49c0 1.294-1.153 2.588-2.306 2.588s-2.306-.863-2.306-2.588c0-1.295 1.153-2.589 2.306-2.589s2.306 1.294 2.306 2.589zm49.192 0c0 1.294-1.153 2.588-2.306 2.588s-2.306-1.294-2.306-2.588c0-1.295 1.153-2.589 2.306-2.589s2.306 1.294 2.306 2.589zm49.192 0c0 1.294-1.153 2.588-2.306 2.588s-2.306-1.294-2.306-2.588c0-1.295 1.153-2.589 2.306-2.589s2.306 1.294 2.306 2.589zm49.193 0c0 1.294-1.153 2.588-2.306 2.588s-2.306-1.294-2.306-2.588c0-1.295 1.153-2.589 2.306-2.589s2.306 1.294 2.306 2.589zm48.808 0c0 1.294-1.153 2.588-2.306 2.588s-2.306-1.294-2.306-2.588c0-1.295 1.153-2.589 2.306-2.589s2.306 1.294 2.306 2.589zm49.193 0c0 1.294-1.153 2.588-2.306 2.588s-2.306-1.294-2.306-2.588c0-1.295 1.153-2.589 2.306-2.589s2.306 1.294 2.306 2.589zm49.192 0c0 1.294-1.153 2.588-2.306 2.588s-2.306-1.294-2.306-2.588c0-1.295 1.153-2.589 2.306-2.589s2.306 1.294 2.306 2.589zm48.808 0c0 1.294-1.153 2.588-2.306 2.588s-2.306-1.294-2.306-2.588c0-1.295 1.153-2.589 2.306-2.589 1.538 0 2.306 1.294 2.306 2.589zm49.195 0c0 1.294-1.16 2.588-2.31 2.588-1.15 0-2.3-1.294-2.3-2.588 0-1.295 1.15-2.589 2.3-2.589s2.31 1.294 2.31 2.589zm49.19 0c0 1.294-1.15 2.588-2.31 2.588-1.15 0-2.3-1.294-2.3-2.588 0-1.295 1.15-2.589 2.3-2.589 1.16 0 2.31 1.294 2.31 2.589zm49.19 0c0 1.294-1.15 2.588-2.3 2.588-1.16 0-2.31-1.294-2.31-2.588 0-1.295 1.15-2.589 2.31-2.589 1.15 0 2.3 1.294 2.3 2.589zm48.81 0c0 1.294-1.15 2.588-2.31 2.588-1.15 0-2.3-1.294-2.3-2.588 0-1.295 1.15-2.589 2.3-2.589 1.54 0 2.31 1.294 2.31 2.589zm-539.963 55.219c0 1.294-1.153 2.588-2.306 2.588s-2.306-.862-2.306-2.588c0-1.294 1.153-2.588 2.306-2.588s2.306 1.294 2.306 2.588zm49.192 0c0 1.294-1.153 2.588-2.306 2.588s-2.306-1.294-2.306-2.588 1.153-2.588 2.306-2.588 2.306 1.294 2.306 2.588zm49.192 0c0 1.294-1.153 2.588-2.306 2.588s-2.306-1.294-2.306-2.588 1.153-2.588 2.306-2.588 2.306 1.294 2.306 2.588zm49.193 0c0 1.294-1.153 2.588-2.306 2.588s-2.306-1.294-2.306-2.588 1.153-2.588 2.306-2.588 2.306 1.294 2.306 2.588zm48.808 0c0 1.294-1.153 2.588-2.306 2.588s-2.306-1.294-2.306-2.588 1.153-2.588 2.306-2.588 2.306 1.294 2.306 2.588zm49.193 0c0 1.294-1.153 2.588-2.306 2.588s-2.306-1.294-2.306-2.588 1.153-2.588 2.306-2.588 2.306 1.294 2.306 2.588zm49.192 0c0 1.294-1.153 2.588-2.306 2.588s-2.306-1.294-2.306-2.588 1.153-2.588 2.306-2.588 2.306 1.294 2.306 2.588zm48.808 0c0 1.294-1.153 2.588-2.306 2.588s-2.306-1.294-2.306-2.588 1.153-2.588 2.306-2.588c1.538 0 2.306 1.294 2.306 2.588zm49.195 0c0 1.294-1.16 2.588-2.31 2.588-1.15 0-2.3-1.294-2.3-2.588s1.15-2.588 2.3-2.588 2.31 1.294 2.31 2.588zm49.19 0c0 1.294-1.15 2.588-2.31 2.588-1.15 0-2.3-1.294-2.3-2.588s1.15-2.588 2.3-2.588c1.16 0 2.31 1.294 2.31 2.588zm49.19 0c0 1.294-1.15 2.588-2.3 2.588-1.16 0-2.31-1.294-2.31-2.588s1.15-2.588 2.31-2.588c1.15 0 2.3 1.294 2.3 2.588zm48.81 0c0 1.294-1.15 2.588-2.31 2.588-1.15 0-2.3-1.294-2.3-2.588s1.15-2.588 2.3-2.588c1.54 0 2.31 1.294 2.31 2.588z" fill="#E5E5E5"/></svg>