<svg width="18" height="14" fill="none" xmlns="http://www.w3.org/2000/svg"><path d="M6.932 14c-.712 0-1.444-.057-2.18-.173-1.297-.203-2.61-.882-2.982-1.085l-.975-.533 1.056-.347c1.153-.38 1.854-.614 2.723-.983a3.623 3.623 0 01-1.863-2.158l-.245-.745.201.03a3.66 3.66 0 01-.458-.564c-.416-.631-.636-1.403-.589-2.063l.046-.65.39.15a3.64 3.64 0 01-.353-.989 3.762 3.762 0 01.4-2.533l.34-.622.454.544C4.33 3.003 6.149 4.025 8.305 4.325a3.235 3.235 0 01.197-1.719 3.218 3.218 0 011.308-1.5 3.93 3.93 0 012.28-.56 3.643 3.643 0 012.24.923c.3-.078.52-.16.819-.273.18-.068.384-.145.639-.232l.94-.324-.614 1.75a3.11 3.11 0 01.126-.008l1.003-.046-.593.81c-.034.047-.042.06-.054.079-.048.072-.108.161-.922 1.248a1.534 1.534 0 00-.286.999c.072 1.412-.101 2.69-.516 3.798a6.72 6.72 0 01-1.804 2.673c-.996.897-2.267 1.512-3.777 1.826-.74.154-1.536.231-2.36.231z" fill="#707070"/></svg>